<?xml version="1.0" encoding="UTF-8"?>
<svg version="1.1" xmlns="http://www.w3.org/2000/svg" width="251" height="246">
<path d="M0 0 C4.89513594 0.01506196 9.7540401 0.15976257 14.63819504 0.49635315 C30.43557354 1.52495491 46.28510881 1.24243927 62.10715771 1.20127487 C66.52164951 1.19116617 70.93614609 1.18775783 75.35064697 1.18383789 C86.5384637 1.17282243 97.72625966 1.15327578 108.9140625 1.1328125 C121.01309431 1.11070244 133.11211761 1.09015314 145.21116567 1.07939434 C150.43801168 1.07445683 155.66481776 1.06466701 160.89164782 1.05096436 C164.15589414 1.0434336 167.42013525 1.04017523 170.68438911 1.0379982 C172.18101131 1.03614813 173.6776327 1.03259239 175.17424583 1.02706528 C184.88309619 0.99237822 194.48762786 1.36467365 204.1640625 2.1328125 C204.2343068 18.63194056 204.28712592 35.13101972 204.31949902 51.63026142 C204.33493344 59.29205147 204.35595701 66.95374831 204.39038086 74.61547852 C204.42038859 81.29752662 204.43966236 87.97950718 204.44632798 94.6616208 C204.4502211 98.19606689 204.45929791 101.73031987 204.48125267 105.26470375 C204.50562746 109.22118227 204.50602523 113.17747604 204.50463867 117.1340332 C204.5154245 118.2913797 204.52621033 119.4487262 204.537323 120.6411438 C204.46590108 139.55539349 195.98911866 153.99593381 183.2890625 167.4453125 C163.74546194 186.56114616 129.37941579 207.21007444 101.76953125 209.40234375 C97.5435214 209.08642319 94.01900963 208.08947625 90.0390625 206.6953125 C89.26554443 206.42871826 88.49202637 206.16212402 87.69506836 205.88745117 C62.19539073 196.89100424 38.98647023 184.72698154 19.1640625 166.1328125 C18.24173828 165.34197266 18.24173828 165.34197266 17.30078125 164.53515625 C13.26372468 160.90644563 10.34216827 156.65270274 7.4765625 152.0703125 C7.10781006 151.49974121 6.73905762 150.92916992 6.35913086 150.34130859 C-2.60577433 135.37349804 -1.36290244 118.88277093 -1.2265625 102.078125 C-1.21684713 99.36286858 -1.21320531 96.64761283 -1.20941162 93.93234253 C-1.1970597 87.5507176 -1.1643457 81.16937211 -1.12401366 74.78786933 C-1.07905095 67.51323669 -1.05724783 60.23858954 -1.03723192 52.96385217 C-0.9956044 38.02001753 -0.92540687 23.07644318 -0.8359375 8.1328125 C-1.4959375 8.1328125 -2.1559375 8.1328125 -2.8359375 8.1328125 C-2.87835473 5.79986475 -2.87686687 3.46578683 -2.8359375 1.1328125 C-1.8359375 0.1328125 -1.8359375 0.1328125 0 0 Z " fill="#09683A" transform="translate(29.8359375,11.8671875)"/>
<path d="M0 0 C0.33 0 0.66 0 1 0 C1 2.97 1 5.94 1 9 C0.34 9 -0.32 9 -1 9 C-0.896875 9.928125 -0.79375 10.85625 -0.6875 11.8125 C-0.65906809 16.50376447 -2.73447314 20.07784365 -4.7734375 24.20703125 C-5.94824127 26.88214175 -6.52873254 29.19331279 -7 32.0625 C-7.3984375 34.25 -7.3984375 34.25 -8 36 C-10.625 37.5625 -10.625 37.5625 -13 38 C-13.33 40.64 -13.66 43.28 -14 46 C-13.34 46 -12.68 46 -12 46 C-11.5978125 44.576875 -11.5978125 44.576875 -11.1875 43.125 C-10 40 -10 40 -7 38 C-6.27617533 35.94074861 -6.27617533 35.94074861 -6 34 C0.15234375 33.12109375 0.15234375 33.12109375 2 33 C3.87089301 34.87089301 3.12779595 38.0396214 3.12939453 40.5324707 C3.13202301 41.55716209 3.13202301 41.55716209 3.13470459 42.60255432 C3.13912931 44.87698867 3.13617942 47.15134601 3.1328125 49.42578125 C3.13348622 51.00986242 3.13445681 52.59394348 3.13571167 54.17802429 C3.13719016 57.5113523 3.1350324 60.8446536 3.13037109 64.17797852 C3.12472463 68.41978539 3.12791917 72.66152828 3.13394356 76.90333271 C3.1375889 80.18332891 3.13639163 83.46331043 3.13381577 86.74330711 C3.13315476 88.30477087 3.13394557 89.86623601 3.13629532 91.42769814 C3.14673461 100.32992646 2.9341936 109.13581449 2 118 C1.01 118.33 0.02 118.66 -1 119 C-1.67156616 120.93618425 -1.67156616 120.93618425 -2 123 C-2.33 123.66 -2.66 124.32 -3 125 C-3.66 125 -4.32 125 -5 125 C-4.80664062 124.43152344 -4.61328125 123.86304688 -4.4140625 123.27734375 C-4.15367187 122.50519531 -3.89328125 121.73304688 -3.625 120.9375 C-3.36976563 120.18339844 -3.11453125 119.42929688 -2.8515625 118.65234375 C-2.57054687 117.77707031 -2.28953125 116.90179688 -2 116 C-1.65711945 114.94489731 -1.31423889 113.88979462 -0.96096802 112.80271912 C0.03334295 108.86805611 0.24109314 105.55537232 0.22705078 101.50415039 C0.22734283 100.79111755 0.22763489 100.07808472 0.22793579 99.34344482 C0.22655419 97.0113869 0.21104896 94.67965763 0.1953125 92.34765625 C0.1915782 90.72098464 0.1887332 89.09431078 0.18673706 87.46763611 C0.17913346 83.20480034 0.15951339 78.94210279 0.1373291 74.67932129 C0.11679986 70.3220405 0.10772026 65.96473718 0.09765625 61.60742188 C0.07626415 53.07155145 0.04216812 44.53579296 0 36 C-0.80928452 37.44055 -0.80928452 37.44055 -1.63491821 38.91020203 C-2.35491972 40.18330927 -3.07509278 41.4563195 -3.79541016 42.72924805 C-4.32661217 43.67640308 -4.32661217 43.67640308 -4.86854553 44.64269257 C-7.60213672 49.4615874 -10.63159908 53.71679969 -14.375 57.8125 C-14.93461426 58.43793701 -15.49422852 59.06337402 -16.07080078 59.70776367 C-26.70576682 71.43415714 -39.08785716 80.50356792 -53 88 C-53.66 88 -54.32 88 -55 88 C-55 88.66 -55 89.32 -55 90 C-53.7934375 90.0928125 -53.7934375 90.0928125 -52.5625 90.1875 C-40.65379575 92.90352027 -33.04844646 101.56580412 -25.99462891 110.88647461 C-23.85002821 113.71210465 -21.7584876 116.2391313 -19.2265625 118.74609375 C-17 121 -17 121 -16 124 C-15.34 124.33 -14.68 124.66 -14 125 C-34.74977018 132.76232323 -57.12144345 139.05892276 -78.7265625 130.6171875 C-86.76384709 126.64650037 -93.86953717 121.41066853 -99 114 C-98.91796875 111.9375 -98.91796875 111.9375 -98 110 C-89.42825055 104.20198993 -76.57801639 104.65655652 -66.76904297 106.39550781 C-57.28317191 108.51670416 -48.54498427 112.32048319 -39.87890625 116.64453125 C-37.22876207 118.14199146 -37.22876207 118.14199146 -35 118 C-54.53378521 108.21353447 -75.17804179 98.46488518 -97.39453125 105.8359375 C-110.98141309 111.90623853 -122.83744171 121.20894118 -129.8125 134.4375 C-132.19020858 141.5153302 -132.56509941 150.88745156 -129.8984375 157.89453125 C-125.16432031 165.52734586 -117.68879917 168.33553589 -109.5625 171.25 C-108.83095703 171.518125 -108.09941406 171.78625 -107.34570312 172.0625 C-105.56584792 172.71395027 -103.78320931 173.35778776 -102 174 C-105.07513801 175.025046 -106.26956648 174.96634496 -109.375 174.5 C-112.83721303 174.05380941 -115.60050463 174.01304973 -119 175 C-116.90360036 178.14459946 -116.3559026 178.54088804 -113 179.75 C-112.29875 180.01296875 -111.5975 180.2759375 -110.875 180.546875 C-108.92530483 181.23132108 -108.92530483 181.23132108 -107 180 C-107 180.66 -107 181.32 -107 182 C-106.01 182 -105.02 182 -104 182 C-104 182.66 -104 183.32 -104 184 C-101.69 184.66 -99.38 185.32 -97 186 C-100.67899692 187.35136941 -102.72422101 186.63372988 -106.296875 185.19140625 C-107.33013916 184.77826172 -108.36340332 184.36511719 -109.42797852 183.93945312 C-110.52424561 183.48505859 -111.6205127 183.03066406 -112.75 182.5625 C-113.87656006 182.10166016 -115.00312012 181.64082031 -116.16381836 181.16601562 C-135.21736105 173.27671138 -153.57740554 163.90829138 -169 150 C-169.93585938 149.15824219 -170.87171875 148.31648437 -171.8359375 147.44921875 C-178.62659127 141.02135333 -183.73268212 134.30231759 -188 126 C-188 125.34 -188 124.68 -188 124 C-187.01 124 -186.02 124 -185 124 C-185 125.32 -185 126.64 -185 128 C-183.515 127.505 -183.515 127.505 -182 127 C-180.14973606 122.28182696 -179.80115025 118.91528399 -181 114 C-178.81629141 116.73899449 -177.29555873 119.36887353 -175.875 122.5625 C-171.31941553 131.82415371 -164.66507194 139.40429959 -156 145 C-155.90589844 143.9996875 -155.81179687 142.999375 -155.71484375 141.96875 C-155.10823343 137.78030021 -153.49370782 134.23385477 -151.5625 130.5 C-151.21558105 129.81292969 -150.86866211 129.12585938 -150.51123047 128.41796875 C-147.55292665 122.71759997 -144.11659056 117.40643853 -140.32641602 112.22460938 C-135.55900493 105.51203375 -134.15643144 98.16356674 -135 90 C-137.28970219 77.17766774 -146.26306231 67.05275577 -154 57 C-151.24586643 62.2434466 -148.23564381 67.18274598 -144.875 72.0625 C-138.62856389 81.43215417 -136.76210976 88.54625768 -138 100 C-139.00379118 103.22864437 -140.27796602 106.09406766 -142 109 C-149.7302237 108.20465207 -155.25391082 101.13406875 -160.12890625 95.5703125 C-167.97684709 85.23069282 -170.44203123 73.04220562 -169.33984375 60.29394531 C-168.11239435 52.00866184 -164.98356757 43.36766624 -161 36 C-158.15570284 37.32313823 -155.81632686 38.80845203 -153.390625 40.79296875 C-152.72216553 41.33711426 -152.05370605 41.88125977 -151.36499023 42.44189453 C-150.66704346 43.01794434 -149.96909668 43.59399414 -149.25 44.1875 C-148.53207275 44.77901855 -147.81414551 45.37053711 -147.07446289 45.97998047 C-145.6662014 47.14262426 -144.25932906 48.30695319 -142.85400391 49.47314453 C-141.39139926 50.67766513 -139.90823748 51.85722352 -138.41796875 53.02734375 C-129.04030697 60.59236085 -124.92672265 70.56578542 -122 82 C-121.54625 80.845 -121.0925 79.69 -120.625 78.5 C-120.24214844 77.52546875 -120.24214844 77.52546875 -119.8515625 76.53125 C-117.74685912 70.27506749 -116.75133219 64.83480859 -116.8046875 58.21875 C-116.80893234 57.17031921 -116.80893234 57.17031921 -116.81326294 56.10070801 C-116.8243273 53.90028684 -116.84940394 51.70029507 -116.875 49.5 C-116.88504765 47.99479761 -116.89417035 46.48958874 -116.90234375 44.984375 C-116.92422107 41.32278062 -116.95865304 37.66143232 -117 34 C-117.66 34 -118.32 34 -119 34 C-119 32.35 -119 30.7 -119 29 C-119.66 29 -120.32 29 -121 29 C-121 27.68 -121 26.36 -121 25 C-121.66 25 -122.32 25 -123 25 C-125 22 -125 22 -124.75 20.0625 C-123.97936717 17.94325972 -123.0643413 15.98677042 -122 14 C-121.34 14 -120.68 14 -120 14 C-119.505 16.475 -119.505 16.475 -119 19 C-118.01 18.67 -117.02 18.34 -116 18 C-110.21737617 23.94784165 -107.59381314 31.21856057 -105 39 C-104.319375 37.39125 -104.319375 37.39125 -103.625 35.75 C-102.49911463 33.11937683 -101.32079794 30.53999604 -100 28 C-100 28.99 -100 29.98 -100 31 C-97.49962266 28.82575883 -96.56371414 27.26954202 -96 24 C-96.99 24 -97.98 24 -99 24 C-99 22.68 -99 21.36 -99 20 C-98.360625 19.87625 -97.72125 19.7525 -97.0625 19.625 C-96.381875 19.41875 -95.70125 19.2125 -95 19 C-94.67 18.34 -94.34 17.68 -94 17 C-91.4375 16.375 -91.4375 16.375 -89 16 C-88.505 19.465 -88.505 19.465 -88 23 C-87.071875 22.113125 -86.14375 21.22625 -85.1875 20.3125 C-77.13521362 13.38949768 -66.40755799 10.01334268 -56 8.9375 C-55.2383252 8.85516113 -54.47665039 8.77282227 -53.69189453 8.68798828 C-43.82304696 7.68823542 -33.90969573 7.34325333 -24 7 C-24.53418589 12.71070149 -25.65336846 17.54916398 -27.75 22.875 C-28.02021973 23.57189941 -28.29043945 24.26879883 -28.56884766 24.98681641 C-35.05385019 41.45696704 -44.49685573 55.35671684 -61 63 C-68.98903784 66.22383728 -75.61115813 68.16170931 -84.25 68.0625 C-85.36761719 68.05573242 -85.36761719 68.05573242 -86.5078125 68.04882812 C-88.3385764 68.03709246 -90.16929873 68.0191585 -92 68 C-89.44139223 54.2566211 -83.63169916 43.12252594 -72 35 C-63.79081441 30.14980625 -54.94562247 26.26859283 -46 23 C-54.26305631 25.55403559 -62.16717374 28.89536352 -70.13867188 32.22705078 C-72.41717615 33.17323973 -74.70591365 34.09230048 -77 35 C-77 35.66 -77 36.32 -77 37 C-78.16965793 38.04497358 -79.38768092 39.036096 -80.625 40 C-90.83641074 48.71397772 -94.66035371 62.0801587 -98.0625 74.625 C-99.77252031 80.88449078 -101.62660278 86.95734476 -104 93 C-103.29359375 92.72027344 -102.5871875 92.44054687 -101.859375 92.15234375 C-96.69484711 90.13454453 -91.53495763 88.16311374 -86.28125 86.390625 C-54.47821561 75.66053602 -25.22166397 59.85209818 -9.625 28.6875 C-8.37825228 26.14162805 -7.17606911 23.57920612 -6 21 C-5.46503906 19.83984375 -4.93007812 18.6796875 -4.37890625 17.484375 C-2.94281837 13.85550704 -2.07720299 10.38601496 -1.3125 6.5625 C-1.06113281 5.32628906 -0.80976563 4.09007812 -0.55078125 2.81640625 C-0.36902344 1.88699219 -0.18726563 0.95757812 0 0 Z " fill="#096A39" transform="translate(222,32)"/>
<path d="M0 0 C0.33 0 0.66 0 1 0 C1.06980573 9.4583865 1.12296544 18.916683 1.15543652 28.3752718 C1.17102854 32.76825943 1.19214725 37.16106956 1.22631836 41.55395508 C1.25914425 45.80094817 1.2769015 50.04777156 1.28463173 54.29488182 C1.29013387 55.90743871 1.30087708 57.51998732 1.31719017 59.13247108 C1.50251235 78.22688468 -3.17580223 90.37392146 -16.390625 104.4296875 C-30.05114177 117.88570551 -46.92717474 126.21448736 -64.14404297 134.13964844 C-65.63547541 134.83102017 -67.11809289 135.54139235 -68.59765625 136.2578125 C-79.12325683 141.25501353 -89.30297098 144.60972229 -100.640625 140.765625 C-102.42726563 140.01539063 -102.42726563 140.01539063 -104.25 139.25 C-105.5546693 138.70308158 -106.85935706 138.1562072 -108.1640625 137.609375 C-109.12747559 137.20041992 -109.12747559 137.20041992 -110.11035156 136.78320312 C-111.87809235 136.0505271 -113.66904687 135.37457837 -115.4609375 134.703125 C-121.62676701 132.35858736 -125.38978597 130.59000883 -129 125 C-129.5259375 124.27296875 -130.051875 123.5459375 -130.59375 122.796875 C-132.37372867 119.25669519 -132.49534673 116.12755272 -132.4375 112.25 C-132.42920166 111.5377124 -132.42090332 110.8254248 -132.41235352 110.09155273 C-132.03111147 98.18621837 -125.2386492 89.79741202 -116.8125 81.875 C-103.38222106 70.45128226 -89.65341666 66.65807273 -72.35302734 67.75878906 C-58.37862136 69.19131792 -45.34747901 76.81365367 -33 83 C-36.23533658 84.09265528 -37.78361515 83.98084168 -40.8359375 82.48828125 C-41.56296875 82.14410156 -42.29 81.79992187 -43.0390625 81.4453125 C-44.19535156 80.88457031 -44.19535156 80.88457031 -45.375 80.3125 C-60.65534371 73.2845214 -77.06849971 68.03369359 -93.625 74 C-95.09677469 74.63644311 -96.56201414 75.29050918 -98 76 C-96.65198971 82.87485246 -91.52029479 86.88956953 -85.9375 90.6875 C-68.76774507 100.87917271 -49.83799149 99.74844196 -31.05273438 95.04321289 C-25.90316367 93.66401014 -20.96225854 91.9449772 -16 90 C-17.25607468 86.23177595 -19.15789405 84.77075601 -22 82 C-23.98552951 79.81113719 -25.90096217 77.56602191 -27.8125 75.3125 C-28.56563477 74.44141602 -28.56563477 74.44141602 -29.33398438 73.55273438 C-33 69.23830782 -33 69.23830782 -33 67 C-33.53625 66.773125 -34.0725 66.54625 -34.625 66.3125 C-37 65 -37 65 -39.75 62.625 C-44.20099392 58.80663466 -49.27864332 56.2714126 -55 55 C-55 54.34 -55 53.68 -55 53 C-53.69289062 52.29037109 -53.69289062 52.29037109 -52.359375 51.56640625 C-30.72900357 39.63683603 -13.11801233 23.89568767 -1.2421875 2.1328125 C-0.83226562 1.42898437 -0.42234375 0.72515625 0 0 Z " fill="#FCDE03" transform="translate(222,67)"/>
<path d="M0 0 C1.75281787 -0.01611516 3.50567884 -0.02758551 5.25854492 -0.03710938 C6.72272102 -0.04744202 6.72272102 -0.04744202 8.21647644 -0.0579834 C24.48479991 0.28090099 38.96456608 9.82626732 50.1484375 20.91796875 C60.93895891 32.20798573 66.40348431 47.15352139 66.375 62.625 C66.37367065 63.93017578 66.37367065 63.93017578 66.37231445 65.26171875 C66.20826573 74.30854779 65.00206732 83.84567334 59 91 C58.85304687 90.17757812 58.70609375 89.35515625 58.5546875 88.5078125 C55.27482161 72.18388225 46.68493221 63.04294366 34 53 C33.06542969 52.24589844 32.13085938 51.49179688 31.16796875 50.71484375 C26.19985398 46.70125251 26.19985398 46.70125251 21 43 C20.86408447 43.58305908 20.72816895 44.16611816 20.58813477 44.7668457 C20 47 20 47 18.58984375 50.73046875 C13.33143198 64.68499872 11.47503154 77.56272023 16.61328125 92.00390625 C20.84735871 101.15189895 28.31048822 111.06567255 37.76953125 115.21484375 C38.50558594 115.47394531 39.24164063 115.73304688 40 116 C43.52455612 107.48232272 45.19271571 97.45129195 41.625 88.625 C40.80380288 87.0540142 39.91611071 85.51759754 39 84 C38.62423828 83.37738281 38.24847656 82.75476563 37.86132812 82.11328125 C34.35326773 76.33592761 30.74926816 70.62390225 27 65 C27.33 64.01 27.66 63.02 28 62 C30.62396865 65.77268381 33.24164984 69.54957423 35.85009766 73.33300781 C36.82898418 74.75208152 37.81068031 76.16921648 38.79296875 77.5859375 C44.90847581 86.54696326 49.36977513 94.84611683 48 106 C46.33971234 112.61930474 43.43690385 117.99717266 39.75 123.6875 C30.94333595 137.03750904 30.94333595 137.03750904 26 152 C13.55224726 146.24429132 5.68537793 133.40720249 1 121 C0.09323594 117.95809076 -0.12365594 115.24733798 -0.12025452 112.07720947 C-0.12162918 111.08725479 -0.12300385 110.09730011 -0.12442017 109.0773468 C-0.12082489 107.9976915 -0.11722961 106.91803619 -0.11352539 105.80566406 C-0.11367142 104.6639122 -0.11381744 103.52216034 -0.1139679 102.34580994 C-0.11327081 98.56906235 -0.10548787 94.79236398 -0.09765625 91.015625 C-0.09579135 88.39817329 -0.09436779 85.78072123 -0.09336853 83.16326904 C-0.09026154 76.97622428 -0.08205667 70.7891972 -0.07201904 64.60216022 C-0.06083828 57.55746393 -0.0553425 50.51276679 -0.05032361 43.46806383 C-0.03987354 28.9787001 -0.02228632 14.4893503 0 0 Z " fill="#FCDE03" transform="translate(40,25)"/>
<path d="M0 0 C1.62089198 0.0224292 3.24186626 0.03948822 4.86286926 0.05145264 C9.09505571 0.09690841 13.32216535 0.21442263 17.55236816 0.34790039 C21.88252075 0.47147338 26.21350798 0.52563383 30.54492188 0.5859375 C39.01793499 0.71398677 47.48684882 0.9183057 55.95703125 1.171875 C56.1440738 20.18376527 48.15188121 39.68615189 35.95703125 54.171875 C35.24675781 55.02007812 34.53648437 55.86828125 33.8046875 56.7421875 C24.99647369 66.86621533 15.61283459 74.53031623 3.95703125 81.171875 C2.87292969 81.81898437 1.78882813 82.46609375 0.671875 83.1328125 C-10.06482991 89.25769715 -21.50669495 93.17210119 -33.16796875 97.18066406 C-36.99238731 98.49920511 -40.79935065 99.86413187 -44.60546875 101.234375 C-46.4178422 101.88056337 -48.23028027 102.52657087 -50.04296875 103.171875 C-49.86048584 102.64327881 -49.67800293 102.11468262 -49.48999023 101.57006836 C-47.19102178 94.80696928 -45.2590443 87.96622492 -43.38085938 81.07617188 C-39.79225758 68.22727312 -34.94439502 54.65700576 -24.04296875 46.171875 C-23.38296875 46.171875 -22.72296875 46.171875 -22.04296875 46.171875 C-22.04296875 45.511875 -22.04296875 44.851875 -22.04296875 44.171875 C-13.90651299 39.90889153 -5.76560387 35.86707268 2.83203125 32.609375 C3.51523438 32.34624512 4.1984375 32.08311523 4.90234375 31.81201172 C6.56492608 31.20079306 8.25943274 30.67776782 9.95703125 30.171875 C10.61703125 30.501875 11.27703125 30.831875 11.95703125 31.171875 C6.94837665 34.21330609 1.97244004 36.61319885 -3.54296875 38.609375 C-9.35922683 40.77860878 -14.11785052 43.41986564 -19.04296875 47.171875 C-19.96335938 47.81189453 -19.96335938 47.81189453 -20.90234375 48.46484375 C-30.00217721 55.3299836 -34.01783353 66.5745069 -37.04296875 77.171875 C-17.80619331 76.67799116 -1.56537702 72.13026628 12.125 57.921875 C22.49548842 45.72602015 26.83187062 31.31197038 30.95703125 16.171875 C29.69632813 16.40583984 29.69632813 16.40583984 28.41015625 16.64453125 C24.82688331 17.19175053 21.32676076 17.42689892 17.70703125 17.609375 C-0.38331192 18.68635781 -15.93028297 20.01727359 -31.04296875 31.171875 C-32.03296875 31.831875 -33.02296875 32.491875 -34.04296875 33.171875 C-32.07634007 21.0098292 -28.40060947 10.55293239 -18.79995346 2.3243866 C-13.38677842 -1.22643941 -6.17628066 -0.25348814 0 0 Z " fill="#FCDE04" transform="translate(167.04296875,22.828125)"/>
<path d="M0 0 C10.33219031 -0.37447807 20.33286563 1.98666312 29.3671875 6.97265625 C31.40018 8.07793738 33.39634748 8.91405517 35.55859375 9.7265625 C38.55859375 11.1640625 38.55859375 11.1640625 39.99609375 13.3515625 C40.18171875 13.9496875 40.36734375 14.5478125 40.55859375 15.1640625 C40.88859375 14.5040625 41.21859375 13.8440625 41.55859375 13.1640625 C43.20859375 13.1640625 44.85859375 13.1640625 46.55859375 13.1640625 C46.78546875 12.5246875 47.01234375 11.8853125 47.24609375 11.2265625 C48.55859375 9.1640625 48.55859375 9.1640625 50.99609375 8.2265625 C53.55859375 8.1640625 53.55859375 8.1640625 55.37109375 9.4765625 C56.55859375 11.1640625 56.55859375 11.1640625 56.55859375 13.1640625 C58.20859375 13.4940625 59.85859375 13.8240625 61.55859375 14.1640625 C61.55859375 14.8240625 61.55859375 15.4840625 61.55859375 16.1640625 C62.21859375 16.4940625 62.87859375 16.8240625 63.55859375 17.1640625 C42.14668369 25.17408697 20.51151078 30.71067194 -1.73828125 22.55078125 C-4.44140625 21.1640625 -4.44140625 21.1640625 -6.44140625 18.1640625 C-6.44140625 16.8440625 -6.44140625 15.5240625 -6.44140625 14.1640625 C-7.06015625 14.3703125 -7.67890625 14.5765625 -8.31640625 14.7890625 C-9.01765625 14.9128125 -9.71890625 15.0365625 -10.44140625 15.1640625 C-12.81924463 12.78622412 -13.03149833 11.44332585 -13.44140625 8.1640625 C-13.11140625 7.5040625 -12.78140625 6.8440625 -12.44140625 6.1640625 C-13.76140625 6.1640625 -15.08140625 6.1640625 -16.44140625 6.1640625 C-16.77140625 6.8240625 -17.10140625 7.4840625 -17.44140625 8.1640625 C-18.10140625 7.5040625 -18.76140625 6.8440625 -19.44140625 6.1640625 C-19.44140625 5.1740625 -19.44140625 4.1840625 -19.44140625 3.1640625 C-13.10617647 0.5957261 -6.73049638 0.45228936 0 0 Z " fill="#096B39" transform="translate(144.44140625,139.8359375)"/>
<path d="M0 0 C-5.0086546 3.04143109 -9.98459121 5.44132385 -15.5 7.4375 C-21.31625808 9.60673378 -26.07488177 12.24799064 -31 16 C-31.61359375 16.42667969 -32.2271875 16.85335937 -32.859375 17.29296875 C-41.95920846 24.1581086 -45.97486478 35.4026319 -49 46 C-30.70677802 45.5303409 -15.83313132 41.42676297 -2 29 C0.14304788 26.74214598 2.06510133 24.44408253 4 22 C4.495 22.99 4.495 22.99 5 24 C4.00664799 25.67063747 3.00568242 27.33675599 2 29 C1.29329272 31.69254991 1.29329272 31.69254991 1 34 C0.401875 34.103125 -0.19625 34.20625 -0.8125 34.3125 C-3.29861534 35.09385053 -4.22943442 36.14895416 -6 38 C-6.66 38 -7.32 38 -8 38 C-8.495 38.99 -8.495 38.99 -9 40 C-7.11499729 42.31563087 -7.11499729 42.31563087 -4 42.25 C-0.88500271 42.31563087 -0.88500271 42.31563087 1 40 C1.99 40.33 2.98 40.66 4 41 C4 40.34 4 39.68 4 39 C5.485 39.495 5.485 39.495 7 40 C-8.59547843 52.54647479 -26.39711188 59.6552686 -45.18945312 66.04101562 C-48.99573373 67.33975348 -52.77941823 68.69801929 -56.5625 70.0625 C-58.37487345 70.70868837 -60.18731152 71.35469587 -62 72 C-61.81751709 71.47140381 -61.63503418 70.94280762 -61.44702148 70.39819336 C-59.14805303 63.63509428 -57.21607555 56.79434992 -55.33789062 49.90429688 C-51.74928883 37.05539812 -46.90142627 23.48513076 -36 15 C-35.34 15 -34.68 15 -34 15 C-34 14.34 -34 13.68 -34 13 C-25.86354424 8.73701653 -17.72263512 4.69519768 -9.125 1.4375 C-8.44179687 1.17437012 -7.75859375 0.91124023 -7.0546875 0.64013672 C-2.25140694 -1.12570347 -2.25140694 -1.12570347 0 0 Z " fill="#F7DD09" transform="translate(179,54)"/>
<path d="M0 0 C18.15 0 36.3 0 55 0 C53.6174571 2.76508579 52.31611466 5.09371372 50.625 7.625 C47.7488466 12.19300834 45.80128457 16.92365256 44 22 C43.73316406 22.74636719 43.46632812 23.49273437 43.19140625 24.26171875 C40.55717988 32.30088626 39.36217647 40.67236794 38 49 C35.50762308 46.50762308 34.92479571 44.32075589 33.75 41 C27.43315711 24.28974701 16.17807724 10.08903862 0 2 C0 1.34 0 0.68 0 0 Z " fill="#FBDE04" transform="translate(80,24)"/>
<path d="M0 0 C0.33 0 0.66 0 1 0 C1 2.97 1 5.94 1 9 C0.34 9 -0.32 9 -1 9 C-0.8453125 10.3921875 -0.8453125 10.3921875 -0.6875 11.8125 C-0.65906809 16.50376447 -2.73447314 20.07784365 -4.7734375 24.20703125 C-5.94824127 26.88214175 -6.52873254 29.19331279 -7 32.0625 C-7.3984375 34.25 -7.3984375 34.25 -8 36 C-10.625 37.5625 -10.625 37.5625 -13 38 C-13.33 40.64 -13.66 43.28 -14 46 C-13.34 46 -12.68 46 -12 46 C-11.731875 45.05125 -11.46375 44.1025 -11.1875 43.125 C-10 40 -10 40 -7 38 C-6.27617533 35.94074861 -6.27617533 35.94074861 -6 34 C0.15234375 33.12109375 0.15234375 33.12109375 2 33 C3.87089301 34.87089301 3.12779595 38.0396214 3.12939453 40.5324707 C3.13114685 41.2155983 3.13289917 41.89872589 3.13470459 42.60255432 C3.13912931 44.87698867 3.13617942 47.15134601 3.1328125 49.42578125 C3.13348622 51.00986242 3.13445681 52.59394348 3.13571167 54.17802429 C3.13719016 57.5113523 3.1350324 60.8446536 3.13037109 64.17797852 C3.12472463 68.41978539 3.12791917 72.66152828 3.13394356 76.90333271 C3.1375889 80.18332891 3.13639163 83.46331043 3.13381577 86.74330711 C3.13315476 88.30477087 3.13394557 89.86623601 3.13629532 91.42769814 C3.14673461 100.32992646 2.9341936 109.13581449 2 118 C1.01 118.33 0.02 118.66 -1 119 C-1.67156616 120.93618425 -1.67156616 120.93618425 -2 123 C-2.33 123.66 -2.66 124.32 -3 125 C-3.66 125 -4.32 125 -5 125 C-4.80664062 124.43152344 -4.61328125 123.86304688 -4.4140625 123.27734375 C-4.15367187 122.50519531 -3.89328125 121.73304688 -3.625 120.9375 C-3.24214844 119.80634766 -3.24214844 119.80634766 -2.8515625 118.65234375 C-2.57054687 117.77707031 -2.28953125 116.90179688 -2 116 C-1.48567917 114.41734596 -1.48567917 114.41734596 -0.96096802 112.80271912 C0.03334295 108.86805611 0.24109314 105.55537232 0.22705078 101.50415039 C0.22734283 100.79111755 0.22763489 100.07808472 0.22793579 99.34344482 C0.22655419 97.0113869 0.21104896 94.67965763 0.1953125 92.34765625 C0.1915782 90.72098464 0.1887332 89.09431078 0.18673706 87.46763611 C0.17913346 83.20480034 0.15951339 78.94210279 0.1373291 74.67932129 C0.11679986 70.3220405 0.10772026 65.96473718 0.09765625 61.60742188 C0.07626415 53.07155145 0.04216812 44.53579296 0 36 C-0.53952301 36.96036667 -1.07904602 37.92073334 -1.63491821 38.91020203 C-2.35491972 40.18330927 -3.07509278 41.4563195 -3.79541016 42.72924805 C-4.14954483 43.36068474 -4.5036795 43.99212143 -4.86854553 44.64269257 C-7.60227382 49.46182908 -10.63233718 53.71588083 -14.375 57.8125 C-14.92736328 58.43213623 -15.47972656 59.05177246 -16.04882812 59.69018555 C-28.42299398 73.37205953 -28.42299398 73.37205953 -36 76 C-36.8125 74.375 -36.8125 74.375 -37 72 C-34.84608031 69.08929772 -32.55669335 66.55669335 -30 64 C-32.76264289 63.40267181 -35.16032769 63 -38 63 C-37.02160156 62.12859375 -36.04320312 61.2571875 -35.03515625 60.359375 C-22.10664677 48.6872307 -13.23263758 36.86170649 -6 21 C-5.46503906 19.83984375 -4.93007812 18.6796875 -4.37890625 17.484375 C-2.94281837 13.85550704 -2.07720299 10.38601496 -1.3125 6.5625 C-0.93544922 4.70818359 -0.93544922 4.70818359 -0.55078125 2.81640625 C-0.36902344 1.88699219 -0.18726563 0.95757812 0 0 Z " fill="#136A2C" transform="translate(222,32)"/>
<path d="M0 0 C0.495 1.485 0.495 1.485 1 3 C0.67 3.66 0.34 4.32 0 5 C0.66 5 1.32 5 2 5 C2 5.66 2 6.32 2 7 C2.61875 6.649375 3.2375 6.29875 3.875 5.9375 C4.57625 5.628125 5.2775 5.31875 6 5 C6.99 5.495 6.99 5.495 8 6 C8 5.34 8 4.68 8 4 C9.32 4.33 10.64 4.66 12 5 C11.40832031 5.57105469 10.81664062 6.14210938 10.20703125 6.73046875 C4.64536968 12.43729604 1.51106807 17.56563979 -1.02734375 25.1171875 C-1.85180881 27.56078274 -2.7802365 29.73550633 -4 32 C-4 30.35 -4 28.7 -4 27 C-5.65 27.33 -7.3 27.66 -9 28 C-9.495 29.485 -9.495 29.485 -10 31 C-11.32 31 -12.64 31 -14 31 C-14 32.32 -14 33.64 -14 35 C-13.01 35 -12.02 35 -11 35 C-11.25 37.875 -11.25 37.875 -12 41 C-13.9375 42.0625 -13.9375 42.0625 -16 43 C-17.28254644 45.53770003 -17.28254644 45.53770003 -18 48 C-19.68349141 44.63301717 -18.12533999 41.09430937 -17.3125 37.5625 C-17.12679443 36.74789307 -16.94108887 35.93328613 -16.74975586 35.09399414 C-13.91385095 23.01593861 -9.78957745 12.73697181 -2 3 C-20.15 3 -38.3 3 -57 3 C-57 2.67 -57 2.34 -57 2 C-55.99521858 1.9845388 -55.99521858 1.9845388 -54.97013855 1.96876526 C-48.01116054 1.86075664 -41.0523135 1.74615395 -34.09350586 1.62768555 C-31.49490087 1.58431862 -28.89626705 1.54264485 -26.29760742 1.50268555 C-22.56680608 1.44502577 -18.83615006 1.38131871 -15.10546875 1.31640625 C-13.93976852 1.29969376 -12.7740683 1.28298126 -11.57304382 1.26576233 C-9.9517028 1.2358445 -9.9517028 1.2358445 -8.29760742 1.20532227 C-7.34496506 1.18977798 -6.39232269 1.1742337 -5.41081238 1.15821838 C-2.85608802 1.09281922 -2.85608802 1.09281922 0 0 Z " fill="#076B37" transform="translate(137,21)"/>
<path d="M0 0 C12.05355374 6.16070524 20.27839558 15.16295432 28 26 C27.67 26.66 27.34 27.32 27 28 C26.54625 27.505 26.0925 27.01 25.625 26.5 C24.12364481 24.77390663 24.12364481 24.77390663 22 25 C21.67 25.66 21.34 26.32 21 27 C21 24.69 21 22.38 21 20 C20.34 20 19.68 20 19 20 C16.96315288 24.07369424 16.9742741 26.58937864 18 31 C18.66 31 19.32 31 20 31 C20 32.32 20 33.64 20 35 C20.66 35 21.32 35 22 35 C22 36.65 22 38.3 22 40 C22.66 40 23.32 40 24 40 C24.495 45.94 24.495 45.94 25 52 C23.35402153 48.70804307 22.29948908 45.86409088 21.25 42.375 C16.72795918 28.72605627 8.08590666 18.19990168 -3.93359375 10.375 C-6 9 -6 9 -8 7 C-6.68 7 -5.36 7 -4 7 C-3.34 6.01 -2.68 5.02 -2 4 C-1.34 4 -0.68 4 0 4 C0 2.68 0 1.36 0 0 Z " fill="#166A28" transform="translate(81,26)"/>
<path d="M0 0 C2.1640625 -0.29296875 2.1640625 -0.29296875 4.625 -0.1875 C5.44226562 -0.16042969 6.25953125 -0.13335938 7.1015625 -0.10546875 C8.04128906 -0.05326172 8.04128906 -0.05326172 9 0 C9 0.33 9 0.66 9 1 C6.36 1 3.72 1 1 1 C1 38.29 1 75.58 1 114 C0.34 114 -0.32 114 -1 114 C-2.17458446 111.65083108 -2.12821399 110.26022126 -2.13371277 107.64161682 C-2.13797775 106.72606018 -2.14224274 105.81050354 -2.14663696 104.86720276 C-2.14618378 103.85987595 -2.14573059 102.85254913 -2.14526367 101.81469727 C-2.14862228 100.7560849 -2.1519809 99.69747253 -2.15544128 98.60678101 C-2.16497162 95.09331095 -2.1668954 91.57988844 -2.16796875 88.06640625 C-2.17117974 85.63264445 -2.17454369 83.19888285 -2.17805481 80.76512146 C-2.1840512 75.65810702 -2.18589417 70.55110951 -2.18530273 65.4440918 C-2.18520105 58.88877509 -2.19885743 52.33356654 -2.21607494 45.77827549 C-2.22717386 40.75037636 -2.2292226 35.72250356 -2.22869301 30.69459343 C-2.22987615 28.2771969 -2.23431652 25.85979976 -2.24202538 23.44241524 C-2.25178328 20.06643136 -2.24896387 16.69068467 -2.24291992 13.31469727 C-2.24853943 12.30939468 -2.25415894 11.3040921 -2.25994873 10.26832581 C-2.25575424 9.34994934 -2.25155975 8.43157288 -2.24723816 7.48536682 C-2.24778293 6.68692636 -2.24832769 5.88848589 -2.24888897 5.06585026 C-2 3 -2 3 0 0 Z " fill="#2B7227" transform="translate(39,24)"/>
<path d="M0 0 C1.32 0.33 2.64 0.66 4 1 C3.67 1.33 3.34 1.66 3 2 C2.8961983 3.60213812 2.86203425 5.20883295 2.85523987 6.8143158 C2.84834137 7.85615524 2.84144287 8.89799469 2.83433533 9.97140503 C2.83172195 11.12415924 2.82910858 12.27691345 2.82641602 13.46459961 C2.819729 14.6709758 2.81304199 15.87735199 2.80615234 17.12028503 C2.79206331 19.74983532 2.77974342 22.37932942 2.77020454 25.00889397 C2.75478887 29.16397689 2.73084059 33.31898281 2.70530701 37.47401428 C2.63400443 49.29113915 2.57427862 61.10830815 2.52319336 72.92553711 C2.49492203 79.44787931 2.45955854 85.97014493 2.41653961 92.4924069 C2.38971072 96.62563305 2.37184043 100.75877252 2.36050236 104.89206874 C2.34926114 108.06343249 2.32513152 111.23470239 2.30297852 114.40600586 C2.30238937 115.55673584 2.30180023 116.70746582 2.30119324 117.89306641 C2.29147491 118.93772568 2.28175659 119.98238495 2.27174377 121.05870056 C2.26751184 121.9699768 2.2632799 122.88125303 2.25891972 123.8201437 C2 126 2 126 0 128 C0 85.76 0 43.52 0 0 Z " fill="#135C36" transform="translate(29,14)"/>
<path d="M0 0 C4.23547521 2.19178437 6.51547827 4.61739663 9.25 8.5 C9.93578125 9.4590625 10.6215625 10.418125 11.328125 11.40625 C13 14 13 14 14 17 C13.01 17 12.02 17 11 17 C11 15.68 11 14.36 11 13 C10.01 13 9.02 13 8 13 C8 15.97 8 18.94 8 22 C7.01 21.34 6.02 20.68 5 20 C3.89002778 23.93535607 3.98551616 26.4000508 5.4375 30.125 C7.48005823 35.6342855 7.67244671 41.18377259 7 47 C6.34 47.99 5.68 48.98 5 50 C5.03480469 49.17757812 5.06960937 48.35515625 5.10546875 47.5078125 C5.54918255 29.20990054 -3.27059296 17.94093023 -14 4 C-14.99 4.495 -14.99 4.495 -16 5 C-16 3.68 -16 2.36 -16 1 C-15.01 1 -14.02 1 -13 1 C-13 1.66 -13 2.32 -13 3 C-12.34 3 -11.68 3 -11 3 C-10.731875 3.598125 -10.46375 4.19625 -10.1875 4.8125 C-8.99353652 7.01190641 -7.82880993 8.31749487 -6 10 C-5.505 10.556875 -5.01 11.11375 -4.5 11.6875 C-2.95590371 13.3292523 -2.95590371 13.3292523 0 13 C0.12375 12.401875 0.2475 11.80375 0.375 11.1875 C1 9 1 9 3 6 C2.67 5.01 2.34 4.02 2 3 C1.34 2.67 0.68 2.34 0 2 C0 1.34 0 0.68 0 0 Z " fill="#176C29" transform="translate(82,85)"/>
<path d="M0 0 C-3.23533658 1.09265528 -4.78361515 0.98084168 -7.8359375 -0.51171875 C-8.56296875 -0.85589844 -9.29 -1.20007813 -10.0390625 -1.5546875 C-10.80992187 -1.92851562 -11.58078125 -2.30234375 -12.375 -2.6875 C-27.65534371 -9.7154786 -44.06849971 -14.96630641 -60.625 -9 C-62.09677469 -8.36355689 -63.56201414 -7.70949082 -65 -7 C-64.31911019 -4.08014819 -63.41898766 -1.64877696 -62 1 C-66.8 -2.32307692 -66.8 -2.32307692 -67.8125 -5.75 C-67.874375 -6.4925 -67.93625 -7.235 -68 -8 C-72.10958767 -6.54955729 -75.43258745 -4.48889248 -79 -2 C-79.66 -2.33 -80.32 -2.66 -81 -3 C-53.79013366 -23.61002642 -27.75792181 -13.90730184 0 0 Z " fill="#E2DF2A" transform="translate(189,150)"/>
<path d="M0 0 C-5.0086546 3.04143109 -9.98459121 5.44132385 -15.5 7.4375 C-21.31625808 9.60673378 -26.07488177 12.24799064 -31 16 C-31.61359375 16.42667969 -32.2271875 16.85335937 -32.859375 17.29296875 C-41.95920846 24.1581086 -45.97486478 35.4026319 -49 46 C-49.33 44.68 -49.66 43.36 -50 42 C-50.66 42 -51.32 42 -52 42 C-50.79503863 31.84171804 -44.9814556 23.23183883 -37.69921875 16.29296875 C-36 15 -36 15 -34 15 C-34 14.34 -34 13.68 -34 13 C-25.86354424 8.73701653 -17.72263512 4.69519768 -9.125 1.4375 C-8.44179687 1.17437012 -7.75859375 0.91124023 -7.0546875 0.64013672 C-2.25140694 -1.12570347 -2.25140694 -1.12570347 0 0 Z " fill="#D7DB2A" transform="translate(179,54)"/>
<path d="M0 0 C0.55945313 0.69996094 1.11890625 1.39992188 1.6953125 2.12109375 C3.24500168 4.05689194 4.80244567 5.98650499 6.3671875 7.91015625 C15.01171209 18.69661142 22.33008718 29.62572456 21 44 C19.79763525 49.10797715 17.95385024 53.6395544 15 58 C14.505 56.515 14.505 56.515 14 55 C11.69 54.67 9.38 54.34 7 54 C7.33 53.34 7.66 52.68 8 52 C9.65 52.66 11.3 53.32 13 54 C16.52455612 45.48232272 18.19271571 35.45129195 14.625 26.625 C13.80380288 25.0540142 12.91611071 23.51759754 12 22 C11.43635742 21.06607422 11.43635742 21.06607422 10.86132812 20.11328125 C7.35326773 14.33592761 3.74926816 8.62390225 0 3 C0 2.01 0 1.02 0 0 Z " fill="#CED325" transform="translate(67,87)"/>
<path d="M0 0 C1.75281787 -0.01611516 3.50567884 -0.02758551 5.25854492 -0.03710938 C6.72272102 -0.04744202 6.72272102 -0.04744202 8.21647644 -0.0579834 C19.87422238 0.18485835 30.57171477 5.53728817 40 12 C40.495 12.99 40.495 12.99 41 14 C33.5 11 33.5 11 26 8 C26 7.34 26 6.68 26 6 C24.845 5.896875 23.69 5.79375 22.5 5.6875 C19.4540901 5.31813659 16.89586458 4.66869163 14.0625 3.5 C9.30154437 1.55694694 9.30154437 1.55694694 1 1 C1.33 40.6 1.66 80.2 2 121 C0.1105555 117.22111099 -0.24903585 116.05070757 -0.24050903 112.07720947 C-0.24325836 111.08725479 -0.24600769 110.09730011 -0.24884033 109.0773468 C-0.24164978 107.9976915 -0.23445923 106.91803619 -0.22705078 105.80566406 C-0.22734283 104.6639122 -0.22763489 103.52216034 -0.22793579 102.34580994 C-0.22654159 98.56900453 -0.21097587 94.79239598 -0.1953125 91.015625 C-0.1915827 88.39817411 -0.18873557 85.78072183 -0.18673706 83.16326904 C-0.18052306 76.9761988 -0.16411334 70.78919931 -0.14403808 64.60216022 C-0.12167658 57.55747144 -0.11068502 50.51277927 -0.10064721 43.46806383 C-0.07974703 28.97867274 -0.0445726 14.48933736 0 0 Z " fill="#D5D72B" transform="translate(40,25)"/>
<path d="M0 0 C0.66 0.33 1.32 0.66 2 1 C2.0232884 10.1803813 2.0409985 19.36075225 2.05181217 28.54115677 C2.05700519 32.80511782 2.06403687 37.06905849 2.07543945 41.33300781 C2.08639676 45.45679674 2.09230373 49.58056621 2.09487724 53.70436859 C2.09670855 55.26862646 2.100284 56.83288341 2.10573006 58.39713287 C2.13549822 67.31119271 1.94142563 76.12387273 1 85 C-0.485 85.495 -0.485 85.495 -2 86 C-2.67156616 87.93618425 -2.67156616 87.93618425 -3 90 C-3.495 90.99 -3.495 90.99 -4 92 C-4.66 92 -5.32 92 -6 92 C-5.80664062 91.43152344 -5.61328125 90.86304688 -5.4140625 90.27734375 C-5.15367187 89.50519531 -4.89328125 88.73304688 -4.625 87.9375 C-4.24214844 86.80634766 -4.24214844 86.80634766 -3.8515625 85.65234375 C-3.57054687 84.77707031 -3.28953125 83.90179688 -3 83 C-2.65679214 81.94835663 -2.31358429 80.89671326 -1.9599762 79.8132019 C-0.95448283 75.81919742 -0.76547505 72.4489148 -0.78881836 68.33642578 C-0.7901326 67.6054921 -0.79144684 66.87455841 -0.7928009 66.12147522 C-0.79924102 63.72928425 -0.81964009 61.33742314 -0.83984375 58.9453125 C-0.8461195 57.27619778 -0.85135782 55.60707887 -0.85560608 53.93795776 C-0.86885986 49.56206322 -0.89328146 45.18631034 -0.92095947 40.81048584 C-0.96422683 33.78568753 -0.99373707 26.76084813 -1.0170002 19.7359581 C-1.02725052 17.28014779 -1.04428962 14.82444931 -1.06199646 12.36868286 C-1.06881961 10.8748586 -1.07542845 9.38103334 -1.08178711 7.88720703 C-1.09004013 6.57817413 -1.09829315 5.26914124 -1.10679626 3.92044067 C-1 1 -1 1 0 0 Z " fill="#3E7818" transform="translate(223,65)"/>
<path d="M0 0 C-3.61479124 1.20493041 -4.39717393 0.69797234 -7.8125 -0.75 C-8.64394531 -1.09546875 -9.47539062 -1.4409375 -10.33203125 -1.796875 C-12.2181176 -2.64740882 -14.07343415 -3.56777877 -15.90234375 -4.53515625 C-29.51515699 -10.97248912 -45.59568515 -9.72514065 -60 -7 C-59.34 -5.68 -58.68 -4.36 -58 -3 C-56.35 -3.33 -54.7 -3.66 -53 -4 C-52.67 -1.69 -52.34 0.62 -52 3 C-50.35 3.33 -48.7 3.66 -47 4 C-46.67 5.65 -46.34 7.3 -46 9 C-52.56219225 7.0114569 -58.37380604 1.74147377 -62 -4 C-61.87109375 -6.0078125 -61.87109375 -6.0078125 -61 -8 C-42.94051659 -20.21560047 -16.89843497 -8.53530849 0 0 Z " fill="#1E6A24" transform="translate(185,150)"/>
<path d="M0 0 C4.16780866 1.38926955 5.92554297 4.37657354 8.5 7.75 C9.22896484 8.68199219 9.22896484 8.68199219 9.97265625 9.6328125 C12.55769772 12.97153091 14.9185116 16.31520297 17 20 C16.34 20 15.68 20 15 20 C15 19.34 15 18.68 15 18 C14.01 17.67 13.02 17.34 12 17 C11.34 16.67 10.68 16.34 10 16 C7.08226936 17.74749007 7.08226936 17.74749007 5.5625 19.6875 C5.046875 20.120625 4.53125 20.55375 4 21 C1.8125 20.6875 1.8125 20.6875 0 20 C-0.33 20.99 -0.66 21.98 -1 23 C-1.66 21.35 -2.32 19.7 -3 18 C-1.68 17.67 -0.36 17.34 1 17 C-5.27 14.03 -11.54 11.06 -18 8 C-13.62722433 6.90680608 -12.77048811 7.17955458 -8.8125 8.875 C-7.93207031 9.24367187 -7.05164063 9.61234375 -6.14453125 9.9921875 C-4 11 -4 11 -3 12 C-2.67 11.34 -2.34 10.68 -2 10 C0.31 10.66 2.62 11.32 5 12 C5 10.35 5 8.7 5 7 C2.525 6.505 2.525 6.505 0 6 C0 4.02 0 2.04 0 0 Z " fill="#106C33" transform="translate(186,133)"/>
<path d="M0 0 C0.33 0.66 0.66 1.32 1 2 C0.505 2.969375 0.01 3.93875 -0.5 4.9375 C-2.41155951 7.93413357 -2.41155951 7.93413357 -1 11 C-0.34870203 12.34090759 0.31513275 13.67592331 1 15 C-1.28560647 16.5306999 -3.57762667 18.04965044 -5.875 19.5625 C-6.52597656 20.00013672 -7.17695313 20.43777344 -7.84765625 20.88867188 C-9.52625497 21.98754836 -11.26023387 23.0007818 -13 24 C-13.66 23.67 -14.32 23.34 -15 23 C-14.360625 22.566875 -13.72125 22.13375 -13.0625 21.6875 C-10.73253997 20.08760823 -10.73253997 20.08760823 -10 17 C-9.01 16.67 -8.02 16.34 -7 16 C-7 15.34 -7 14.68 -7 14 C-7.66 14 -8.32 14 -9 14 C-9 14.66 -9 15.32 -9 16 C-10.98567708 15.96744792 -12.97135417 15.93489583 -14.95703125 15.90234375 C-17.20305461 15.91736783 -17.20305461 15.91736783 -20 17 C-20.33 17.66 -20.66 18.32 -21 19 C-23.32156597 19.40729228 -25.6568787 19.74438677 -28 20 C-24.93837159 17.56963518 -21.69740548 15.5590724 -18.36328125 13.53466797 C-11.74660897 9.51237943 -5.52529495 5.48894432 0 0 Z " fill="#096B3B" transform="translate(201,174)"/>
<path d="M0 0 C1.62808668 0.0111998 3.25619368 0.01973629 4.88430786 0.02572632 C9.15588862 0.04856356 13.42623244 0.1074406 17.69732666 0.1739502 C22.06106841 0.23548428 26.42501134 0.26276493 30.7890625 0.29296875 C39.34171156 0.35719074 47.89335788 0.45950592 56.4453125 0.5859375 C56.6953125 8.0859375 56.6953125 8.0859375 54.4453125 12.5859375 C54.4453125 9.2859375 54.4453125 5.9859375 54.4453125 2.5859375 C45.40453441 2.62400283 36.36421907 2.68337615 27.32377338 2.76984024 C23.12574529 2.80932363 18.92792722 2.84150771 14.72973633 2.85693359 C10.67702579 2.87209478 6.6248926 2.90652996 2.57243919 2.95424652 C1.02756968 2.96906602 -0.51738226 2.97697885 -2.06232262 2.97782135 C-4.22926516 2.98019123 -6.39461236 3.0072681 -8.5612793 3.04003906 C-9.79371872 3.04892151 -11.02615814 3.05780396 -12.29594421 3.06695557 C-16.10768884 3.67400756 -17.79380802 4.95491809 -20.5546875 7.5859375 C-21.2146875 7.2559375 -21.8746875 6.9259375 -22.5546875 6.5859375 C-17.08662688 -1.65894695 -8.89076955 -0.17938079 0 0 Z " fill="#C0C92A" transform="translate(166.5546875,23.4140625)"/>
<path d="M0 0 C0.30822255 6.80811567 -0.23115119 11.78182259 -3 18 C-3.67004218 19.70701221 -4.33657512 21.41540512 -5 23.125 C-6.49761544 26.85751848 -8.1274302 30.44211739 -10 34 C-10.66 34 -11.32 34 -12 34 C-12 34.99 -12 35.98 -12 37 C-12.99 37.33 -13.98 37.66 -15 38 C-13.66094335 34.46918554 -12.06254204 31.24587646 -10.25 27.9375 C-5.90530636 19.40863097 -3.54501363 10.19260013 -1 1 C-1.84046875 1.15597656 -2.6809375 1.31195313 -3.546875 1.47265625 C-7.13014794 2.01987553 -10.63027049 2.25502392 -14.25 2.4375 C-31.03875742 3.43699476 -44.74341997 5.25886546 -60 13 C-60 12.01 -60 11.02 -60 10 C-58.35 9.67 -56.7 9.34 -55 9 C-55 8.34 -55 7.68 -55 7 C-54.01 6.67 -53.02 6.34 -52 6 C-51.67 5.34 -51.34 4.68 -51 4 C-50.21625 4.04125 -49.4325 4.0825 -48.625 4.125 C-40.80191687 4.01174408 -40.80191687 4.01174408 -34 1 C-32.33880141 0.84194275 -30.6713305 0.74885638 -29.00390625 0.68359375 C-27.96943359 0.64169922 -26.93496094 0.59980469 -25.86914062 0.55664062 C-24.77794922 0.51732422 -23.68675781 0.47800781 -22.5625 0.4375 C-21.50611328 0.39431641 -20.44972656 0.35113281 -19.36132812 0.30664062 C-12.90424079 0.05599583 -6.4616893 -0.0569272 0 0 Z " fill="#D2D629" transform="translate(199,38)"/>
<path d="M0 0 C0.495 1.485 0.495 1.485 1 3 C0.67 3.66 0.34 4.32 0 5 C0.66 5 1.32 5 2 5 C2 5.66 2 6.32 2 7 C2.61875 6.649375 3.2375 6.29875 3.875 5.9375 C4.57625 5.628125 5.2775 5.31875 6 5 C6.99 5.495 6.99 5.495 8 6 C8 5.34 8 4.68 8 4 C9.32 4.33 10.64 4.66 12 5 C11.37351562 5.67546875 10.74703125 6.3509375 10.1015625 7.046875 C9.28429687 7.93890625 8.46703125 8.8309375 7.625 9.75 C6.81289062 10.63171875 6.00078125 11.5134375 5.1640625 12.421875 C3.3374152 14.59802521 2.10212006 16.40820119 1 19 C0.67 19 0.34 19 0 19 C-0.07427838 15.65747276 -0.06546953 13.1964086 1 10 C-1.31 10 -3.62 10 -6 10 C-6 11.32 -6 12.64 -6 14 C-6.99 13.67 -7.98 13.34 -9 13 C-6.74888288 9.58451196 -4.45626573 6.27502097 -2 3 C-20.15 3 -38.3 3 -57 3 C-57 2.67 -57 2.34 -57 2 C-55.99521858 1.9845388 -55.99521858 1.9845388 -54.97013855 1.96876526 C-48.01116054 1.86075664 -41.0523135 1.74615395 -34.09350586 1.62768555 C-31.49490087 1.58431862 -28.89626705 1.54264485 -26.29760742 1.50268555 C-22.56680608 1.44502577 -18.83615006 1.38131871 -15.10546875 1.31640625 C-13.93976852 1.29969376 -12.7740683 1.28298126 -11.57304382 1.26576233 C-9.9517028 1.2358445 -9.9517028 1.2358445 -8.29760742 1.20532227 C-7.34496506 1.18977798 -6.39232269 1.1742337 -5.41081238 1.15821838 C-2.85608802 1.09281922 -2.85608802 1.09281922 0 0 Z " fill="#166622" transform="translate(137,21)"/>
<path d="M0 0 C18.15 0 36.3 0 55 0 C54.67 0.99 54.34 1.98 54 3 C53.45098526 2.99777939 52.90197052 2.99555878 52.33631897 2.99327087 C46.64292041 2.97121642 40.9495339 2.95609274 35.25610352 2.94506836 C33.12881986 2.94002702 31.00153969 2.93319409 28.87426758 2.92456055 C25.82372174 2.91248621 22.77322155 2.90676986 19.72265625 2.90234375 C18.76537125 2.89718246 17.80808624 2.89202118 16.8217926 2.88670349 C15.50053627 2.88659019 15.50053627 2.88659019 14.15258789 2.88647461 C13.37315323 2.884254 12.59371857 2.88203339 11.79066467 2.87974548 C9.97633465 2.80428614 9.97633465 2.80428614 9 4 C9.78375 4.763125 10.5675 5.52625 11.375 6.3125 C14 9 14 9 16 12 C12.69162003 10.46891253 9.83763435 8.55556247 6.875 6.4375 C3.54908252 4.03268334 3.54908252 4.03268334 0 2 C0 1.34 0 0.68 0 0 Z " fill="#B6C329" transform="translate(80,24)"/>
<path d="M0 0 C0.33 0 0.66 0 1 0 C1.06980573 9.4583865 1.12296544 18.916683 1.15543652 28.3752718 C1.17102854 32.76825943 1.19214725 37.16106956 1.22631836 41.55395508 C1.25914425 45.80094817 1.2769015 50.04777156 1.28463173 54.29488182 C1.29013387 55.90743871 1.30087708 57.51998732 1.31719017 59.13247108 C1.43613271 71.38754991 0.97182044 82.99221104 -7 93 C-7.33 93 -7.66 93 -8 93 C-8 91.02 -8 89.04 -8 87 C-7.01 87 -6.02 87 -5 87 C-5 85.35 -5 83.7 -5 82 C-4.34 82 -3.68 82 -3 82 C-3 80.35 -3 78.7 -3 77 C-2.34 77 -1.68 77 -1 77 C-0.67 54.23 -0.34 31.46 0 8 C-2.99332739 8.9977758 -3.94766315 9.7522025 -6 12 C-4.43358249 7.69235185 -2.31663844 3.93828536 0 0 Z " fill="#D4D632" transform="translate(222,67)"/>
<path d="M0 0 C0.33 0 0.66 0 1 0 C1.3125 2.25 1.3125 2.25 1 5 C0.2059375 5.53625 -0.588125 6.0725 -1.40625 6.625 C-5.04191019 9.95403825 -5.19505646 13.00708976 -5.8125 17.75 C-5.93302734 18.54277344 -6.05355469 19.33554688 -6.17773438 20.15234375 C-6.47087366 22.09878862 -6.73803615 24.04911476 -7 26 C-6.34 26 -5.68 26 -5 26 C-5.33 28.31 -5.66 30.62 -6 33 C-5.34 33 -4.68 33 -4 33 C-3.938125 33.61875 -3.87625 34.2375 -3.8125 34.875 C-3.171081 37.27761141 -3.171081 37.27761141 -0.4375 38.25 C0.366875 38.4975 1.17125 38.745 2 39 C2 40.32 2 41.64 2 43 C2.99 43 3.98 43 5 43 C5 43.66 5 44.32 5 45 C-0.50290419 43.72025484 -2.71588142 41.52675804 -6 37 C-6.53367187 36.26910156 -7.06734375 35.53820312 -7.6171875 34.78515625 C-9.37230782 31.25012578 -9.49424726 28.11380733 -9.4375 24.25 C-9.43065186 23.5391626 -9.42380371 22.8283252 -9.41674805 22.09594727 C-9.14038976 13.02787633 -5.48151814 6.96300953 0 0 Z " fill="#C9CF25" transform="translate(99,155)"/>
<path d="M0 0 C3.39605531 5.09408297 2.55340377 11.05412693 2 17 C1.00538863 20.23464915 -0.27668511 23.09190613 -2 26 C-6.83256305 25.58578031 -8.82679218 23.53586014 -12 20 C-10.9275 19.5875 -9.855 19.175 -8.75 18.75 C-5.46604495 17.3606344 -3.39778482 15.67445229 -1 13 C-0.67 13 -0.34 13 0 13 C0 8.71 0 4.42 0 0 Z " fill="#206B20" transform="translate(82,115)"/>
<path d="M0 0 C0.763125 0.20625 1.52625 0.4125 2.3125 0.625 C2.6425 1.945 2.9725 3.265 3.3125 4.625 C2.6525 4.625 1.9925 4.625 1.3125 4.625 C1.044375 5.594375 0.77625 6.56375 0.5 7.5625 C0.108125 8.573125 -0.28375 9.58375 -0.6875 10.625 C-1.6775 10.955 -2.6675 11.285 -3.6875 11.625 C-5.06312854 10.33534824 -6.39516393 8.99810707 -7.6875 7.625 C-7.6875 6.965 -7.6875 6.305 -7.6875 5.625 C-8.3475 5.625 -9.0075 5.625 -9.6875 5.625 C-10.0175 3.975 -10.3475 2.325 -10.6875 0.625 C-9.5428125 0.934375 -9.5428125 0.934375 -8.375 1.25 C-4.61700876 1.77437087 -3.75799124 -0.52437087 0 0 Z " fill="#056B3C" transform="translate(82.6875,87.375)"/>
<path d="M0 0 C-0.33 2.64 -0.66 5.28 -1 8 C-1.33 8 -1.66 8 -2 8 C-2 6.02 -2 4.04 -2 2 C-3.79206547 2.14084796 -5.58364917 2.28783701 -7.375 2.4375 C-8.87160156 2.55931641 -8.87160156 2.55931641 -10.3984375 2.68359375 C-12.97927613 2.84965626 -12.97927613 2.84965626 -15 4 C-16.74191213 4.12949598 -18.48820201 4.20242472 -20.234375 4.24609375 C-21.28367188 4.27896484 -22.33296875 4.31183594 -23.4140625 4.34570312 C-25.62230298 4.40646852 -27.83064056 4.46381013 -30.0390625 4.51757812 C-35.46717609 4.69342777 -39.85965526 5.13298799 -45 7 C-47.375 6.625 -47.375 6.625 -49 6 C-34.28094206 0.00334677 -15.71732732 -0.14463798 0 0 Z " fill="#2C6B18" transform="translate(198,39)"/>
<path d="M0 0 C10.49216099 2.35514276 20.17772712 6.7865165 29.73388672 11.61328125 C26.11909548 12.81821166 25.33671279 12.31125359 21.92138672 10.86328125 C21.08994141 10.5178125 20.25849609 10.17234375 19.40185547 9.81640625 C17.54764712 8.98024787 15.72512624 8.07161767 13.93310547 7.109375 C10.13125705 5.33146542 6.44323933 4.33223718 2.35888672 3.42578125 C1.58174316 3.25143555 0.80459961 3.07708984 0.00390625 2.89746094 C-7.78581407 1.28492414 -15.35102005 1.22507504 -23.26611328 1.61328125 C-17.179433 -2.4445056 -7.06756889 -1.20610096 0 0 Z " fill="#35721A" transform="translate(155.26611328125,138.38671875)"/>
<path d="M0 0 C12.07879891 3.00289249 22.90305608 8.49166023 34 14 C30.76466342 15.09265528 29.21638485 14.98084168 26.1640625 13.48828125 C25.43558105 13.14410156 24.70709961 12.79992187 23.95654297 12.4453125 C23.18713379 12.07148438 22.41772461 11.69765625 21.625 11.3125 C13.87823042 7.69071565 6.32559241 5.03454991 -2 3 C-1.34 2.67 -0.68 2.34 0 2 C0 1.34 0 0.68 0 0 Z " fill="#B9D647" transform="translate(155,136)"/>
<path d="M0 0 C0.763125 0.20625 1.52625 0.4125 2.3125 0.625 C2.3125 1.615 2.3125 2.605 2.3125 3.625 C1.6525 3.625 0.9925 3.625 0.3125 3.625 C-0.3475 4.945 -1.0075 6.265 -1.6875 7.625 C-2.3475 7.625 -3.0075 7.625 -3.6875 7.625 C-3.6875 9.605 -3.6875 11.585 -3.6875 13.625 C-4.6775 13.295 -5.6675 12.965 -6.6875 12.625 C-7.375 10.5625 -7.375 10.5625 -7.6875 8.625 C-8.6775 8.955 -9.6675 9.285 -10.6875 9.625 C-10.375 7.6875 -10.375 7.6875 -9.6875 5.625 C-8.6975 5.295 -7.7075 4.965 -6.6875 4.625 C-6.3575 3.635 -6.0275 2.645 -5.6875 1.625 C-2.6875 -0.375 -2.6875 -0.375 0 0 Z " fill="#086B3C" transform="translate(189.6875,94.375)"/>
<path d="M0 0 C1.04559837 3.1367951 0.98875004 3.94471121 0.2578125 7.01953125 C0.07863281 7.79490234 -0.10054687 8.57027344 -0.28515625 9.36914062 C-0.47980469 10.17544922 -0.67445312 10.98175781 -0.875 11.8125 C-1.24884897 13.40200268 -1.62127461 14.99184087 -1.9921875 16.58203125 C-2.1684668 17.33564941 -2.34474609 18.08926758 -2.52636719 18.86572266 C-3.12463685 21.56163676 -3.58677353 24.27006768 -4 27 C-6.48893304 24.51106696 -7.11491064 22.30799927 -8.3125 19 C-10.51250431 13.11367893 -13.05700286 7.54786269 -16 2 C-13 3 -13 3 -11.39453125 5.6171875 C-10.87246094 6.69226562 -10.35039063 7.76734375 -9.8125 8.875 C-9.28269531 9.94492187 -8.75289063 11.01484375 -8.20703125 12.1171875 C-7 15 -7 15 -7 18 C-4.8206856 16.24135754 -4.06313581 15.30604 -3.48828125 12.51953125 C-3.43027344 11.62621094 -3.37226562 10.73289062 -3.3125 9.8125 C-3.24675781 8.91144531 -3.18101563 8.01039062 -3.11328125 7.08203125 C-3.07589844 6.39496094 -3.03851563 5.70789062 -3 5 C-2.34 5 -1.68 5 -1 5 C-0.67 3.35 -0.34 1.7 0 0 Z " fill="#CDD52E" transform="translate(122,46)"/>
<path d="M0 0 C0.33 0 0.66 0 1 0 C1.125 3.375 1.125 3.375 1 7 C0.34 7.66 -0.32 8.32 -1 9 C-1.33 8.34 -1.66 7.68 -2 7 C-2.33 7.66 -2.66 8.32 -3 9 C-3.66 9 -4.32 9 -5 9 C-5 9.66 -5 10.32 -5 11 C-5.66 11 -6.32 11 -7 11 C-7 12.32 -7 13.64 -7 15 C-7.66 15 -8.32 15 -9 15 C-9 15.66 -9 16.32 -9 17 C-11.31 17.66 -13.62 18.32 -16 19 C-15.62488281 18.50371094 -15.24976563 18.00742188 -14.86328125 17.49609375 C-14.35152344 16.81675781 -13.83976563 16.13742188 -13.3125 15.4375 C-12.7659375 14.71433594 -12.219375 13.99117187 -11.65625 13.24609375 C-10.14673256 11.19898873 -8.72897185 9.11175225 -7.3125 7 C-6.1678125 5.515 -6.1678125 5.515 -5 4 C-4.01 4 -3.02 4 -2 4 C-1.34 2.68 -0.68 1.36 0 0 Z " fill="#136C29" transform="translate(221,153)"/>
<path d="M0 0 C19 23.69515012 19 23.69515012 19 29 C18.34 29 17.68 29 17 29 C16.67 29.66 16.34 30.32 16 31 C15.54625 29.845 15.0925 28.69 14.625 27.5 C10.79927752 18.82281786 5.24861827 10.87292741 0 3 C0 2.01 0 1.02 0 0 Z " fill="#B7D551" transform="translate(67,87)"/>
<path d="M0 0 C0.33 0 0.66 0 1 0 C1.05455703 2.97941998 1.09393851 5.95781531 1.125 8.9375 C1.15013672 10.18370117 1.15013672 10.18370117 1.17578125 11.45507812 C1.2452922 20.38723538 -0.17515895 27.44108235 -5 35 C-5.99 35 -6.98 35 -8 35 C-8.36463732 33.25215171 -8.7163078 31.50159498 -9.0625 29.75 C-9.25972656 28.77546875 -9.45695312 27.8009375 -9.66015625 26.796875 C-10 24 -10 24 -9 20 C-8.01 23.63 -7.02 27.26 -6 31 C-1.91285675 20.59636264 -0.54858947 11.08728189 0 0 Z " fill="#3A751B" transform="translate(106,83)"/>
<path d="M0 0 C8.79177591 10.31293362 8.68758304 25.19627525 8.30639648 37.96386719 C7.95675725 40.2873662 7.14578687 41.96215462 6 44 C6.01571045 43.16190796 6.01571045 43.16190796 6.03173828 42.30688477 C6.07383379 39.7254707 6.09949343 37.14412924 6.125 34.5625 C6.14175781 33.68400391 6.15851563 32.80550781 6.17578125 31.90039062 C6.21887295 26.06146471 5.7533476 20.59958253 4 15 C3.67 14.67 3.34 14.34 3 14 C2.95907063 11.66702567 2.95758277 9.33294775 3 7 C2.34 7 1.68 7 1 7 C0.67 4.69 0.34 2.38 0 0 Z " fill="#D6D728" transform="translate(98,58)"/>
<path d="M0 0 C0.66 0.33 1.32 0.66 2 1 C-0.51173709 4.89319249 -0.51173709 4.89319249 -3 5.4375 C-5.29008139 5.82994994 -5.29008139 5.82994994 -6.4375 8.5 C-8 11 -8 11 -10.6875 11.8125 C-11.450625 11.874375 -12.21375 11.93625 -13 12 C-13.66 13.98 -14.32 15.96 -15 18 C-15.66 18 -16.32 18 -17 18 C-17 19.65 -17 21.3 -17 23 C-17.66 23 -18.32 23 -19 23 C-19.33 24.32 -19.66 25.64 -20 27 C-21.1487245 24.20454904 -21.06266362 23.15631972 -19.91796875 20.30078125 C-15.23226621 12.20921817 -9.12559746 3.47827912 0 0 Z " fill="#1F6A1D" transform="translate(154,65)"/>
<path d="M0 0 C-4.98674573 3.02812725 -9.95185909 5.43563104 -15.4375 7.4375 C-21.42837509 9.65059974 -26.67154072 12.49981568 -32 16 C-32 15.34 -32 14.68 -32 14 C-32.66 13.67 -33.32 13.34 -34 13 C-25.86354424 8.73701653 -17.72263512 4.69519768 -9.125 1.4375 C-8.44179687 1.17437012 -7.75859375 0.91124023 -7.0546875 0.64013672 C-2.25140694 -1.12570347 -2.25140694 -1.12570347 0 0 Z " fill="#B9D348" transform="translate(179,54)"/>
<path d="M0 0 C1.04449911 3.13349732 0.93423645 3.98968256 0 7 C-0.66 7 -1.32 7 -2 7 C-2.2165625 8.546875 -2.2165625 8.546875 -2.4375 10.125 C-2.91660457 13.42549813 -3.43875083 16.71268341 -4 20 C-3.01 20 -2.02 20 -1 20 C-1.25 22.875 -1.25 22.875 -2 26 C-3.9375 27.0625 -3.9375 27.0625 -6 28 C-7.28254644 30.53770003 -7.28254644 30.53770003 -8 33 C-9.68370975 29.63258049 -8.12459927 26.09479301 -7.3125 22.5625 C-7.03829224 21.34820312 -7.03829224 21.34820312 -6.75854492 20.109375 C-5.14446056 13.18654715 -3.1901463 6.3802926 0 0 Z " fill="#1E6B20" transform="translate(127,36)"/>
<path d="M0 0 C9.40437054 0.02893652 18.77817833 0.58813943 28.1640625 1.1328125 C27.8340625 1.7928125 27.5040625 2.4528125 27.1640625 3.1328125 C23.99741584 3.16221708 20.83080503 3.17974565 17.6640625 3.1953125 C16.7771875 3.20369141 15.8903125 3.21207031 14.9765625 3.22070312 C9.60583164 3.24044846 4.47772587 2.92117143 -0.8359375 2.1328125 C-0.8359375 4.1128125 -0.8359375 6.0928125 -0.8359375 8.1328125 C-1.4959375 8.1328125 -2.1559375 8.1328125 -2.8359375 8.1328125 C-2.87835473 5.79986475 -2.87686687 3.46578683 -2.8359375 1.1328125 C-1.8359375 0.1328125 -1.8359375 0.1328125 0 0 Z " fill="#205F3E" transform="translate(29.8359375,11.8671875)"/>
<path d="M0 0 C1.65 0 3.3 0 5 0 C4.34 3.3 3.68 6.6 3 10 C2.34 10 1.68 10 1 10 C0.896875 10.78375 0.79375 11.5675 0.6875 12.375 C0 15 0 15 -3 17 C-4.37729031 12.45494198 -3.45472571 9.44499522 -2 5 C-1.814375 4.21625 -1.62875 3.4325 -1.4375 2.625 C-1 1 -1 1 0 0 Z " fill="#076B3D" transform="translate(134,30)"/>
<path d="M0 0 C0.33 0.66 0.66 1.32 1 2 C0.00664799 3.67063747 -0.99431758 5.33675599 -2 7 C-2.70670728 9.69254991 -2.70670728 9.69254991 -3 12 C-3.598125 12.103125 -4.19625 12.20625 -4.8125 12.3125 C-7.06591338 12.8279009 -7.06591338 12.8279009 -8.4375 14.5 C-10.48513623 16.46573078 -12.23747349 16.62668561 -15 17 C-15 17.66 -15 18.32 -15 19 C-17.31 19 -19.62 19 -22 19 C-19.84721829 17.36146591 -17.67569633 15.77601691 -15.44921875 14.23828125 C-9.44149371 10.04901895 -4.50633566 5.78287443 0 0 Z " fill="#E5DD1D" transform="translate(183,76)"/>
<path d="M0 0 C1.22589844 -0.0309375 1.22589844 -0.0309375 2.4765625 -0.0625 C10.81777263 -0.11529247 17.5646582 2.31366211 24.875 6.25 C22.875 7.25 22.875 7.25 20.4609375 6.47265625 C19.40132812 6.08980469 18.34171875 5.70695313 17.25 5.3125 C6.69566357 2.09983065 -4.20366037 2.90004334 -15.125 3.25 C-10.05110887 -0.13259409 -5.8781563 0.03606231 0 0 Z " fill="#307015" transform="translate(143.125,132.75)"/>
<path d="M0 0 C0.66 0.33 1.32 0.66 2 1 C-0.8071708 4.11907866 -3.10671674 5.52686579 -7 7 C-7.33 7.66 -7.66 8.32 -8 9 C-8.763125 9.12375 -9.52625 9.2475 -10.3125 9.375 C-13.61103185 10.14210043 -14.68850509 11.61145526 -17 14 C-20.33333333 14 -23.66666667 14 -27 14 C-24.25815218 11.25815218 -20.9595017 10.16052589 -17.4375 8.6875 C-11.93950203 6.35211074 -6.69534947 3.89674099 -1.6015625 0.75 C-0.80878906 0.37875 -0.80878906 0.37875 0 0 Z " fill="#256E1F" transform="translate(173,102)"/>
<path d="M0 0 C1.5778125 0.86625 1.5778125 0.86625 3.1875 1.75 C14.91332692 7.50036189 26.15779194 8.71173495 39 9 C39 9.33 39 9.66 39 10 C31.41 10 23.82 10 16 10 C16 9.34 16 8.68 16 8 C14.9275 8.020625 13.855 8.04125 12.75 8.0625 C9.85209576 8.0142016 7.71387859 7.86844115 5 7 C5 6.34 5 5.68 5 5 C4.34 5 3.68 5 3 5 C1.375 3.625 1.375 3.625 0 2 C0 1.34 0 0.68 0 0 Z " fill="#D8D823" transform="translate(134,157)"/>
<path d="M0 0 C-2.66559313 1.77706209 -5.0280615 2.87548273 -8 4 C-7.37240135 6.92879371 -6.41377341 9.36095629 -5 12 C-9.8 8.67692308 -9.8 8.67692308 -10.8125 5.25 C-10.874375 4.5075 -10.93625 3.765 -11 3 C-15.10958767 4.45044271 -18.43258745 6.51110752 -22 9 C-22.66 8.67 -23.32 8.34 -24 8 C-8.57786885 -3.32611241 -8.57786885 -3.32611241 0 0 Z " fill="#D5D828" transform="translate(132,139)"/>
<path d="M0 0 C4.16780866 1.38926955 5.92554297 4.37657354 8.5 7.75 C8.98597656 8.37132812 9.47195312 8.99265625 9.97265625 9.6328125 C12.55769772 12.97153091 14.9185116 16.31520297 17 20 C16.34 20 15.68 20 15 20 C15 19.34 15 18.68 15 18 C14.01 17.67 13.02 17.34 12 17 C11.34 16.67 10.68 16.34 10 16 C9.01 15.67 8.02 15.34 7 15 C6.05078125 12.93359375 6.05078125 12.93359375 5.3125 10.4375 C5.06113281 9.61121094 4.80976563 8.78492188 4.55078125 7.93359375 C4.36902344 7.29550781 4.18726563 6.65742188 4 6 C2.68 6 1.36 6 0 6 C0 4.02 0 2.04 0 0 Z " fill="#1A6822" transform="translate(186,133)"/>
<path d="M0 0 C-2.14481253 0.62849414 -4.29091035 1.25260258 -6.4375 1.875 C-7.63246094 2.22304687 -8.82742187 2.57109375 -10.05859375 2.9296875 C-11.37131043 3.29043154 -12.68516464 3.64705622 -14 4 C-14.68457275 4.18965332 -15.36914551 4.37930664 -16.07446289 4.57470703 C-22.27092527 6.14207615 -28.19566268 6.23455511 -34.5625 6.125 C-35.57119141 6.11597656 -36.57988281 6.10695312 -37.61914062 6.09765625 C-40.07968457 6.07433356 -42.53970896 6.04160763 -45 6 C-45 5.67 -45 5.34 -45 5 C-44.39937744 4.97494385 -43.79875488 4.9498877 -43.17993164 4.92407227 C-40.47388563 4.8084472 -37.76821717 4.68557064 -35.0625 4.5625 C-34.11697266 4.52318359 -33.17144531 4.48386719 -32.19726562 4.44335938 C-31.29814453 4.40146484 -30.39902344 4.35957031 -29.47265625 4.31640625 C-28.64000244 4.27974854 -27.80734863 4.24309082 -26.94946289 4.20532227 C-24.99661142 4.20632897 -24.99661142 4.20632897 -24 3 C-22.48071962 2.92820036 -20.95832518 2.91607993 -19.4375 2.9375 C-18.61121094 2.94652344 -17.78492188 2.95554688 -16.93359375 2.96484375 C-16.29550781 2.97644531 -15.65742188 2.98804688 -15 3 C-15 2.34 -15 1.68 -15 1 C-13.0641649 0.63684334 -11.12624752 0.28477269 -9.1875 -0.0625 C-8.10855469 -0.25972656 -7.02960938 -0.45695313 -5.91796875 -0.66015625 C-3 -1 -3 -1 0 0 Z " fill="#34711A" transform="translate(200,160)"/>
<path d="M0 0 C0 0.99 0 1.98 0 3 C-0.99 3.33 -1.98 3.66 -3 4 C-1.35 4 0.3 4 2 4 C1.67 4.66 1.34 5.32 1 6 C0.34 6 -0.32 6 -1 6 C-1 6.66 -1 7.32 -1 8 C-2.98567708 7.96744792 -4.97135417 7.93489583 -6.95703125 7.90234375 C-9.20305461 7.91736783 -9.20305461 7.91736783 -12 9 C-12.33 9.66 -12.66 10.32 -13 11 C-15.32156597 11.40729228 -17.6568787 11.74438677 -20 12 C-16.42551275 9.22483277 -12.67222683 6.7669961 -8.875 4.3125 C-7.92560547 3.68891602 -7.92560547 3.68891602 -6.95703125 3.05273438 C-2.23506773 0 -2.23506773 0 0 0 Z " fill="#176C28" transform="translate(193,182)"/>
<path d="M0 0 C0.33 0 0.66 0 1 0 C1.3125 2.25 1.3125 2.25 1 5 C0.2059375 5.53625 -0.588125 6.0725 -1.40625 6.625 C-5.04191019 9.95403825 -5.19505646 13.00708976 -5.8125 17.75 C-5.93302734 18.54277344 -6.05355469 19.33554688 -6.17773438 20.15234375 C-6.47087366 22.09878862 -6.73803615 24.04911476 -7 26 C-6.34 26 -5.68 26 -5 26 C-5.33 28.31 -5.66 30.62 -6 33 C-8 31 -8 31 -8.265625 28.05859375 C-8.21693247 16.77410098 -7.97710286 8.53526749 0 0 Z " fill="#F5E213" transform="translate(99,155)"/>
<path d="M0 0 C2.97 0.66 5.94 1.32 9 2 C4.48161616 5.01225589 -0.5217311 6.70970893 -5.5625 8.6875 C-7.16254883 9.33041992 -7.16254883 9.33041992 -8.79492188 9.98632812 C-9.81263672 10.38658203 -10.83035156 10.78683594 -11.87890625 11.19921875 C-12.8129126 11.56877686 -13.74691895 11.93833496 -14.70922852 12.3190918 C-17 13 -17 13 -19 12 C-18.34 10.68 -17.68 9.36 -17 8 C-14.03 8.495 -14.03 8.495 -11 9 C-11 8.34 -11 7.68 -11 7 C-6.66914029 5.70074209 -2.48525648 4.656379 2 4 C1.34 2.68 0.68 1.36 0 0 Z " fill="#2B6F1A" transform="translate(171,50)"/>
<path d="M0 0 C0.66 0 1.32 0 2 0 C0.24672449 11.12152378 -3.47441911 21.72178567 -8 32 C-8.66 32 -9.32 32 -10 32 C-9.34 29.36 -8.68 26.72 -8 24 C-7.34 24 -6.68 24 -6 24 C-6.061875 22.9790625 -6.061875 22.9790625 -6.125 21.9375 C-5.97450035 18.40075832 -5.05624147 15.36676967 -4 12 C-3.34 12 -2.68 12 -2 12 C-1.34 8.04 -0.68 4.08 0 0 Z " fill="#276C16" transform="translate(125,94)"/>
<path d="M0 0 C1.32 0.33 2.64 0.66 4 1 C3.56429687 1.65484375 3.12859375 2.3096875 2.6796875 2.984375 C-1.74525129 9.76545002 -5.5184037 16.69247371 -9 24 C-9.33 24 -9.66 24 -10 24 C-10.22036864 20.14354879 -9.60355101 17.50776784 -8 14 C-7.34 14 -6.68 14 -6 14 C-6 12.68 -6 11.36 -6 10 C-5.34 10 -4.68 10 -4 10 C-3.67 8.02 -3.34 6.04 -3 4 C-2.01 4 -1.02 4 0 4 C0 2.68 0 1.36 0 0 Z " fill="#DEDA24" transform="translate(77,146)"/>
<path d="M0 0 C0.99 0.33 1.98 0.66 3 1 C4.59456558 7.17894161 4.59456558 13.82105839 3 20 C2.01 20 1.02 20 0 20 C0 13.4 0 6.8 0 0 Z " fill="#EBE321" transform="translate(84,116)"/>
<path d="M0 0 C0.33 0.66 0.66 1.32 1 2 C2.94603274 2.59070014 2.94603274 2.59070014 5 3 C5.66 3.33 6.32 3.66 7 4 C6.67 5.32 6.34 6.64 6 8 C4.68 7.34 3.36 6.68 2 6 C1.01 6.99 0.02 7.98 -1 9 C-1.99 8.34 -2.98 7.68 -4 7 C-3.67 5.02 -3.34 3.04 -3 1 C-2.01 0.67 -1.02 0.34 0 0 Z " fill="#076B3C" transform="translate(88,33)"/>
<path d="M0 0 C1.32 0.66 2.64 1.32 4 2 C4.125 4.875 4.125 4.875 4 8 C2 10 2 10 0.125 10.046875 C-0.57625 9.94890625 -1.2775 9.8509375 -2 9.75 C-3.051875 9.61851563 -3.051875 9.61851563 -4.125 9.484375 C-6 9 -6 9 -8 7 C-6.68 7 -5.36 7 -4 7 C-3.34 6.01 -2.68 5.02 -2 4 C-1.34 4 -0.68 4 0 4 C0 2.68 0 1.36 0 0 Z " fill="#116B31" transform="translate(81,26)"/>
<path d="M0 0 C-2.97827568 1.10657994 -5.95778385 2.20980534 -8.9375 3.3125 C-10.18370117 3.7755957 -10.18370117 3.7755957 -11.45507812 4.24804688 C-13.96621384 5.1762877 -16.48211733 6.09023442 -19 7 C-19.83547363 7.30856934 -20.67094727 7.61713867 -21.53173828 7.93505859 C-22.32692871 8.21816895 -23.12211914 8.5012793 -23.94140625 8.79296875 C-25.00597046 9.17811646 -25.00597046 9.17811646 -26.09204102 9.57104492 C-28 10 -28 10 -31 9 C-24.375 6 -24.375 6 -21 6 C-21 5.34 -21 4.68 -21 4 C-18.69 4 -16.38 4 -14 4 C-14 3.34 -14 2.68 -14 2 C-12.23225581 1.46877637 -10.46065917 0.95035927 -8.6875 0.4375 C-7.70136719 0.14746094 -6.71523437 -0.14257812 -5.69921875 -0.44140625 C-3 -1 -3 -1 0 0 Z " fill="#E1DD2B" transform="translate(153,113)"/>
<path d="M0 0 C4.04420651 1.77945087 7.46078487 4.39529673 11 7 C10.01 7.33 9.02 7.66 8 8 C6.30712215 7.04504326 4.64142963 6.0409066 3 5 C0.80869466 4.30420546 0.80869466 4.30420546 -1 4 C-0.67 2.68 -0.34 1.36 0 0 Z M-1 5 C0.231394 7.46278801 0.07159196 9.2795055 0 12 C-3.36591866 10.55746343 -5.51047079 8.66735273 -8 6 C-6.5459375 6.0309375 -6.5459375 6.0309375 -5.0625 6.0625 C-2.12534105 6.35618499 -2.12534105 6.35618499 -1 5 Z " fill="#206C20" transform="translate(85,29)"/>
<path d="M0 0 C7.57575758 0.75757576 7.57575758 0.75757576 9.75 2 C13.13170494 3.50297997 16.60536306 3.47045709 20.25 3.625 C20.99507812 3.66367188 21.74015625 3.70234375 22.5078125 3.7421875 C24.3381524 3.83605108 26.16904143 3.91909718 28 4 C23.98764252 6.67490499 20.73350384 7.39341787 16 7 C10.50400609 5.47513906 5.24425437 3.21996044 0 1 C0 0.67 0 0.34 0 0 Z " fill="#CED429" transform="translate(112,203)"/>
<path d="M0 0 C-1.65 0.33 -3.3 0.66 -5 1 C-5 1.66 -5 2.32 -5 3 C-6.98 3 -8.96 3 -11 3 C-11.33 3.66 -11.66 4.32 -12 5 C-14.97 5 -17.94 5 -21 5 C-21.33 5.66 -21.66 6.32 -22 7 C-24.7194239 5.18705073 -26.74259377 3.33524782 -29 1 C-28.34 1.144375 -27.68 1.28875 -27 1.4375 C-26.01 1.623125 -25.02 1.80875 -24 2 C-22.865625 2.268125 -21.73125 2.53625 -20.5625 2.8125 C-15.0974001 3.53628482 -10.11584491 1.48524288 -4.9765625 -0.1875 C-2 -1 -2 -1 0 0 Z " fill="#1A661A" transform="translate(149,206)"/>
<path d="M0 0 C0.66 0 1.32 0 2 0 C2.350625 1.134375 2.70125 2.26875 3.0625 3.4375 C4.74877495 8.02973421 7.44682491 11.40057453 10.57421875 15.1171875 C12 17 12 17 12 19 C12.804375 19.2475 13.60875 19.495 14.4375 19.75 C17 21 17 21 17.8125 23.125 C17.874375 23.74375 17.93625 24.3625 18 25 C10.64570546 22.1570204 4.52225543 12.83745355 1.375 5.875 C0.51402877 3.71862252 0 2.31883323 0 0 Z " fill="#D8DA2D" transform="translate(43,148)"/>
<path d="M0 0 C0.66 0.33 1.32 0.66 2 1 C0.625 2.5 0.625 2.5 -1 4 C-1.66 4 -2.32 4 -3 4 C-3.12375 4.61875 -3.2475 5.2375 -3.375 5.875 C-4 8 -4 8 -6 10 C-9.625 10.125 -9.625 10.125 -13 10 C-13 10.66 -13 11.32 -13 12 C-13.66 12.66 -14.32 13.32 -15 14 C-16.32 14 -17.64 14 -19 14 C-19 13.34 -19 12.68 -19 12 C-18.04738281 11.46890625 -17.09476563 10.9378125 -16.11328125 10.390625 C-14.84622221 9.67731769 -13.57930249 8.96376284 -12.3125 8.25 C-11.68666016 7.90195313 -11.06082031 7.55390625 -10.41601562 7.1953125 C-6.66255451 5.07293658 -3.30140728 2.80272435 0 0 Z " fill="#D3D725" transform="translate(186,108)"/>
<path d="M0 0 C3.32823418 4.02646513 6.28455349 8.2272627 9.1875 12.5625 C9.86329102 13.5515332 9.86329102 13.5515332 10.55273438 14.56054688 C10.98263672 15.20185547 11.41253906 15.84316406 11.85546875 16.50390625 C12.24371826 17.07955322 12.63196777 17.6552002 13.03198242 18.24829102 C14.07986083 20.14451487 14.56558238 21.88529327 15 24 C11.88826517 22.96275506 10.89533875 22.58455285 9 20 C8.3125 16.3125 8.3125 16.3125 8 13 C7.34 13 6.68 13 6 13 C6 12.01 6 11.02 6 10 C5.34 10 4.68 10 4 10 C3.34 8.02 2.68 6.04 2 4 C1.34 4 0.68 4 0 4 C0 2.68 0 1.36 0 0 Z " fill="#246C1C" transform="translate(67,90)"/>
<path d="M0 0 C0.99 0.33 1.98 0.66 3 1 C1.23268551 2.3172344 -0.53897761 3.62863588 -2.3125 4.9375 C-3.29863281 5.66839844 -4.28476563 6.39929688 -5.30078125 7.15234375 C-8 9 -8 9 -11 10 C-11.1875 7.625 -11.1875 7.625 -11 5 C-8 3 -8 3 -5 3 C-4.34 2.34 -3.68 1.68 -3 1 C-2.01 1.33 -1.02 1.66 0 2 C0 1.34 0 0.68 0 0 Z " fill="#E9DC16" transform="translate(183,93)"/>
<path d="M0 0 C1.98362069 2.91708924 1.9876191 4.12380904 1.625 7.75 C1.41875 8.8225 1.2125 9.895 1 11 C-1.16874252 10.49396008 -2.99967627 10.00016187 -5 9 C-5 7.68 -5 6.36 -5 5 C-4.34 5 -3.68 5 -3 5 C-3 4.34 -3 3.68 -3 3 C-2.34 3 -1.68 3 -1 3 C-0.67 2.01 -0.34 1.02 0 0 Z " fill="#086A3D" transform="translate(219,159)"/>
<path d="M0 0 C0.33 0.66 0.66 1.32 1 2 C0.38125 2.9075 -0.2375 3.815 -0.875 4.75 C-2.96192055 7.76692807 -2.96192055 7.76692807 -4.0625 10.3125 C-5 12 -5 12 -8 13 C-9.58509851 14.72458718 -10.97553847 16.54950073 -12.40234375 18.40625 C-14.23646622 20.23588806 -15.47457033 20.6072766 -18 21 C-17.29230469 20.31164062 -16.58460938 19.62328125 -15.85546875 18.9140625 C-12.82593541 15.88346129 -10.06537595 12.65597868 -7.3125 9.375 C-6.82716797 8.80265625 -6.34183594 8.2303125 -5.84179688 7.640625 C-3.74977468 5.15905385 -1.80237338 2.70356007 0 0 Z " fill="#D9DA2B" transform="translate(215,79)"/>
<path d="M0 0 C0.99 0.66 1.98 1.32 3 2 C3 2.66 3 3.32 3 4 C3.66 3.34 4.32 2.68 5 2 C7.625 1.875 7.625 1.875 10 2 C7.57804552 4.87255066 5.40257297 5.70838919 1.8125 6.6875 C0.91144531 6.93886719 0.01039063 7.19023438 -0.91796875 7.44921875 C-1.60503906 7.63097656 -2.29210937 7.81273438 -3 8 C-3 6.02 -3 4.04 -3 2 C-2.01 2 -1.02 2 0 2 C0 1.34 0 0.68 0 0 Z " fill="#156A29" transform="translate(157,89)"/>
<path d="M0 0 C3.96 0 7.92 0 12 0 C12 0.66 12 1.32 12 2 C12.85271484 1.94779297 12.85271484 1.94779297 13.72265625 1.89453125 C19.33720226 1.69769408 22.99655005 2.44504683 28 5 C28 5.66 28 6.32 28 7 C26.90042969 6.73445313 25.80085938 6.46890625 24.66796875 6.1953125 C16.4792238 4.2336478 8.31420222 2.36475026 0 1 C0 0.67 0 0.34 0 0 Z " fill="#1D681B" transform="translate(40,23)"/>
<path d="M0 0 C4.04184793 -0.18372036 6.4568192 0.10186743 10 2 C10.66 1.67 11.32 1.34 12 1 C12 1.66 12 2.32 12 3 C12.99 3 13.98 3 15 3 C15 3.66 15 4.32 15 5 C17.31 5.66 19.62 6.32 22 7 C18.66472903 8.13702419 16.91003798 7.88480118 13.671875 6.56640625 C12.87265625 6.24736328 12.0734375 5.92832031 11.25 5.59960938 C10.425 5.25736328 9.6 4.91511719 8.75 4.5625 C7.90953125 4.22412109 7.0690625 3.88574219 6.203125 3.53710938 C4.13117428 2.70126562 2.06396385 1.85533351 0 1 C0 0.67 0 0.34 0 0 Z " fill="#0D5935" transform="translate(103,211)"/>
<path d="M0 0 C0.33 0.66 0.66 1.32 1 2 C0.109375 3.59375 0.109375 3.59375 -1.25 5.5 C-4.2614348 10.06328839 -5.67254002 14.7333295 -7 20 C-6.34 20.33 -5.68 20.66 -5 21 C-6.65 22.32 -8.3 23.64 -10 25 C-8.52917071 15.90408205 -6.45213128 6.9129978 0 0 Z " fill="#CDD835" transform="translate(143,31)"/>
<path d="M0 0 C0.33 0 0.66 0 1 0 C1 1.98 1 3.96 1 6 C0.01 6.495 0.01 6.495 -1 7 C-2.03465912 8.64537482 -3.02744178 10.31717253 -4 12 C-5.38532606 14.11109918 -6.78154091 16.21508562 -8.1875 18.3125 C-8.90292969 19.38113281 -9.61835937 20.44976562 -10.35546875 21.55078125 C-10.89816406 22.35902344 -11.44085938 23.16726562 -12 24 C-12.33 23.34 -12.66 22.68 -13 22 C-12.13549805 20.18408203 -12.13549805 20.18408203 -10.76171875 18.0078125 C-10.27123047 17.22019531 -9.78074219 16.43257812 -9.27539062 15.62109375 C-8.48938477 14.38552734 -8.48938477 14.38552734 -7.6875 13.125 C-6.66922713 11.50344849 -5.65225393 9.88107995 -4.63671875 8.2578125 C-4.17998779 7.5373877 -3.72325684 6.81696289 -3.25268555 6.07470703 C-2.05569374 4.09224037 -1.00456615 2.0854805 0 0 Z " fill="#2D6D14" transform="translate(86,136)"/>
<path d="M0 0 C1.98 0 3.96 0 6 0 C2.23156953 4.12172083 -1.88904305 7.63068221 -7 10 C-7.66 9.67 -8.32 9.34 -9 9 C-8.360625 8.566875 -7.72125 8.13375 -7.0625 7.6875 C-4.73253997 6.08760823 -4.73253997 6.08760823 -4 3 C-3.01 2.67 -2.02 2.34 -1 2 C-0.67 1.34 -0.34 0.68 0 0 Z " fill="#0B5C35" transform="translate(195,188)"/>
<path d="M0 0 C0.33 0 0.66 0 1 0 C0.67 2.31 0.34 4.62 0 7 C1.97956441 6.85966889 3.95865141 6.7125877 5.9375 6.5625 C7.03964844 6.48128906 8.14179688 6.40007812 9.27734375 6.31640625 C11.91109903 6.29581916 11.91109903 6.29581916 13 5 C15.67058851 4.85884839 18.32432238 4.95752893 21 5 C16.02209342 8.31860439 11.60809905 8.12977499 5.75 8.0625 C5.00492188 8.05798828 4.25984375 8.05347656 3.4921875 8.04882812 C1.6614236 8.03709246 -0.16929873 8.0191585 -2 8 C-1.34 5.36 -0.68 2.72 0 0 Z " fill="#2D6C15" transform="translate(132,92)"/>
<path d="M0 0 C0.66 0.33 1.32 0.66 2 1 C2.625 4.0625 2.625 4.0625 3 7 C0 8 0 8 -3.1875 6.5625 C-4.115625 6.046875 -5.04375 5.53125 -6 5 C-6 4.34 -6 3.68 -6 3 C-4.03533587 1.93224776 -2.03144641 0.93446535 0 0 Z " fill="#146A2C" transform="translate(171,194)"/>
<path d="M0 0 C1.37095624 3.69037278 0.60010967 5.70883835 -0.9375 9.25 C-1.31777344 10.14203125 -1.69804688 11.0340625 -2.08984375 11.953125 C-2.39019531 12.62859375 -2.69054687 13.3040625 -3 14 C-3.33 14 -3.66 14 -4 14 C-4.66 10.04 -5.32 6.08 -6 2 C-3.525 3.485 -3.525 3.485 -1 5 C-0.67 3.35 -0.34 1.7 0 0 Z " fill="#DCDF2D" transform="translate(103,102)"/>
<path d="M0 0 C3.57104439 1.87949705 5.54744301 3.17053157 7 7 C7.66 7 8.32 7 9 7 C9.66 9.31 10.32 11.62 11 14 C6.34343499 10.42635709 3.17707792 6.95250382 0 2 C0 1.34 0 0.68 0 0 Z " fill="#236C1C" transform="translate(59,121)"/>
<path d="M0 0 C3.76488042 1.72154788 6.15063897 3.99234114 9 7 C4.545 6.01 4.545 6.01 0 5 C-1.98 9.455 -1.98 9.455 -4 14 C-4.33 13.34 -4.66 12.68 -5 12 C-4.26821134 9.92803369 -3.44100997 7.8891448 -2.5625 5.875 C-2.08941406 4.77929688 -1.61632813 3.68359375 -1.12890625 2.5546875 C-0.75636719 1.71164063 -0.38382813 0.86859375 0 0 Z " fill="#2F6D18" transform="translate(61,68)"/>
<path d="M0 0 C0 0.66 0 1.32 0 2 C-2.31 2.33 -4.62 2.66 -7 3 C-7 3.66 -7 4.32 -7 5 C-7.66 5 -8.32 5 -9 5 C-9.33 5.99 -9.66 6.98 -10 8 C-11.65 7.67 -13.3 7.34 -15 7 C-15 6.34 -15 5.68 -15 5 C-12.8765984 4.16260219 -10.7512272 3.33019717 -8.625 2.5 C-7.44164063 2.0359375 -6.25828125 1.571875 -5.0390625 1.09375 C-2 0 -2 0 0 0 Z " fill="#256C21" transform="translate(133,120)"/>
<path d="M0 0 C1.98 0 3.96 0 6 0 C0.3455652 4.91689983 -6.63272547 7.37299791 -14 8 C-13.67 7.34 -13.34 6.68 -13 6 C-10.93359375 5.3671875 -10.93359375 5.3671875 -8.4375 4.875 C-7.61121094 4.70742187 -6.78492188 4.53984375 -5.93359375 4.3671875 C-4.97646484 4.18542969 -4.97646484 4.18542969 -4 4 C-4 3.34 -4 2.68 -4 2 C-2.68 2 -1.36 2 0 2 C0 1.34 0 0.68 0 0 Z " fill="#D4D82B" transform="translate(154,199)"/>
<path d="M0 0 C0.66 0 1.32 0 2 0 C2 2.97 2 5.94 2 9 C1.01 9.33 0.02 9.66 -1 10 C-1.67156616 11.93618425 -1.67156616 11.93618425 -2 14 C-2.33 14.66 -2.66 15.32 -3 16 C-3.66 16 -4.32 16 -5 16 C-4.80664062 15.43152344 -4.61328125 14.86304688 -4.4140625 14.27734375 C-2.81863577 9.54635062 -1.33099414 4.81205575 0 0 Z " fill="#266D1B" transform="translate(222,141)"/>
<path d="M0 0 C3.36720387 1.39332574 4.9859524 2.9789286 7 6 C6.34 6 5.68 6 5 6 C4.67 6.66 4.34 7.32 4 8 C2.68 8 1.36 8 0 8 C-0.33 6.68 -0.66 5.36 -1 4 C-0.34 4 0.32 4 1 4 C0.67 2.68 0.34 1.36 0 0 Z " fill="#186A2C" transform="translate(179,127)"/>
<path d="M0 0 C0.99 0 1.98 0 3 0 C3 0.66 3 1.32 3 2 C3.66 2 4.32 2 5 2 C5.268125 2.598125 5.53625 3.19625 5.8125 3.8125 C6.86353037 6.03012126 6.86353037 6.03012126 8.5625 7.4375 C10.45263121 9.49199044 10.6324247 11.27994277 11 14 C7.36440339 10.56638098 4.63886654 7.2026393 2 3 C1.01 3.495 1.01 3.495 0 4 C0 2.68 0 1.36 0 0 Z " fill="#2A6D1E" transform="translate(66,86)"/>
<path d="M0 0 C2.75167577 3.2858246 4.21933799 6.63627487 5.75 10.625 C6.19859375 11.77226563 6.6471875 12.91953125 7.109375 14.1015625 C8 17 8 17 7 19 C3.57068046 15.2440786 2.43570917 10.76533255 1 6 C0.67 6 0.34 6 0 6 C0 4.02 0 2.04 0 0 Z " fill="#296D1A" transform="translate(109,54)"/>
<path d="M0 0 C1.37478516 0.01740234 1.37478516 0.01740234 2.77734375 0.03515625 C3.69644531 0.04417969 4.61554687 0.05320312 5.5625 0.0625 C6.27277344 0.07410156 6.98304687 0.08570313 7.71484375 0.09765625 C7.71484375 0.75765625 7.71484375 1.41765625 7.71484375 2.09765625 C4.74484375 2.09765625 1.77484375 2.09765625 -1.28515625 2.09765625 C-1.28515625 4.07765625 -1.28515625 6.05765625 -1.28515625 8.09765625 C-1.94515625 8.09765625 -2.60515625 8.09765625 -3.28515625 8.09765625 C-3.32757348 5.7647085 -3.32608562 3.43063058 -3.28515625 1.09765625 C-2.28515625 0.09765625 -2.28515625 0.09765625 0 0 Z " fill="#DAEFE4" transform="translate(30.28515625,11.90234375)"/>
<path d="M0 0 C0.33 0.66 0.66 1.32 1 2 C0.06553465 4.03144641 -0.93224776 6.03533587 -2 8 C-2.66 8 -3.32 8 -4 8 C-4 9.65 -4 11.3 -4 13 C-4.66 13 -5.32 13 -6 13 C-6.33 14.32 -6.66 15.64 -7 17 C-7.7109375 15.38671875 -7.7109375 15.38671875 -8 13 C-6.6015625 10.01953125 -6.6015625 10.01953125 -4.625 6.8125 C-3.97789062 5.74644531 -3.33078125 4.68039063 -2.6640625 3.58203125 C-1 1 -1 1 0 0 Z " fill="#327217" transform="translate(141,75)"/>
<path d="M0 0 C0.66 0 1.32 0 2 0 C1.67 4.29 1.34 8.58 1 13 C0.34 13 -0.32 13 -1 13 C-3 10 -3 10 -2.75 8.1875 C-2.5025 7.465625 -2.255 6.74375 -2 6 C-1.649375 4.9275 -1.29875 3.855 -0.9375 2.75 C-0.4734375 1.38875 -0.4734375 1.38875 0 0 Z " fill="#236D25" transform="translate(89,169)"/>
<path d="M0 0 C-0.66 2.31 -1.32 4.62 -2 7 C-4.31 7 -6.62 7 -9 7 C-9 5.35 -9 3.7 -9 2 C-8.34 2 -7.68 2 -7 2 C-6.67 2.66 -6.34 3.32 -6 4 C-5.38125 3.34 -4.7625 2.68 -4.125 2 C-2 0 -2 0 0 0 Z " fill="#196A24" transform="translate(140,51)"/>
<path d="M0 0 C2.97 0.33 5.94 0.66 9 1 C4.52123332 3.98584445 1.31831234 4.28490959 -4 4 C-4.99 3.34 -5.98 2.68 -7 2 C-4.69 2 -2.38 2 0 2 C0 1.34 0 0.68 0 0 Z " fill="#145A3B" transform="translate(132,217)"/>
<path d="M0 0 C-0.66 1.65 -1.32 3.3 -2 5 C-2.66 5 -3.32 5 -4 5 C-4 4.34 -4 3.68 -4 3 C-7.63 3.33 -11.26 3.66 -15 4 C-12.08113721 2.54056861 -9.43322662 1.36088872 -6.375 0.3125 C-5.59898437 0.04050781 -4.82296875 -0.23148437 -4.0234375 -0.51171875 C-2 -1 -2 -1 0 0 Z " fill="#D9D624" transform="translate(161,96)"/>
<path d="M0 0 C1.65 0 3.3 0 5 0 C4.71758359 1.46015291 4.42373386 2.91809793 4.125 4.375 C3.96257812 5.18710937 3.80015625 5.99921875 3.6328125 6.8359375 C3 9 3 9 1 11 C1.020625 10.113125 1.04125 9.22625 1.0625 8.3125 C1.00713781 5.37830369 0.6694266 2.84506304 0 0 Z " fill="#176825" transform="translate(190,50)"/>
<path d="M0 0 C3.26008643 3.16952847 6.22237877 6.39937989 9 10 C8.67 10.66 8.34 11.32 8 12 C7.54625 11.505 7.0925 11.01 6.625 10.5 C5.12364481 8.77390663 5.12364481 8.77390663 3 9 C2.67 9.66 2.34 10.32 2 11 C1.77213542 9.01432292 1.54427083 7.02864583 1.31640625 5.04296875 C1.02829265 2.80603607 1.02829265 2.80603607 0 0 Z " fill="#1E6A1D" transform="translate(100,42)"/>
<path d="M0 0 C-0.33 2.64 -0.66 5.28 -1 8 C-1.33 8 -1.66 8 -2 8 C-2 6.02 -2 4.04 -2 2 C-6.62 2 -11.24 2 -16 2 C-16 1.67 -16 1.34 -16 1 C-10.65097076 0.40801257 -5.39115154 -0.14187241 0 0 Z " fill="#2A6A0D" transform="translate(198,39)"/>
<path d="M0 0 C0.53625 0.598125 1.0725 1.19625 1.625 1.8125 C3.94697914 4.15383264 3.94697914 4.15383264 7.125 5.5625 C10 7 10 7 12 10 C7.29302418 9.57209311 3.224768 7.44780671 0 4 C0 2.68 0 1.36 0 0 Z " fill="#176E26" transform="translate(52,167)"/>
<path d="M0 0 C0.33 0 0.66 0 1 0 C1.3125 2.25 1.3125 2.25 1 5 C-1.375 7.0625 -1.375 7.0625 -4 9 C-5.31165257 11.11660427 -5.31165257 11.11660427 -6 13 C-6.33 12.34 -6.66 11.68 -7 11 C-4.97507965 7.09479647 -2.83855846 3.37923626 0 0 Z " fill="#D1D324" transform="translate(99,155)"/>
<path d="M0 0 C1.32 0.66 2.64 1.32 4 2 C3.67 3.65 3.34 5.3 3 7 C1.68 6.67 0.36 6.34 -1 6 C-1.625 4.125 -1.625 4.125 -2 2 C-1.34 1.34 -0.68 0.68 0 0 Z " fill="#0E682E" transform="translate(94,45)"/>
<path d="M0 0 C0.66 0 1.32 0 2 0 C1.71517632 1.41805831 1.42181856 2.83440379 1.125 4.25 C0.96257812 5.03890625 0.80015625 5.8278125 0.6328125 6.640625 C0.00849925 8.96831144 -0.84838542 10.89031952 -2 13 C-2 11.35 -2 9.7 -2 8 C-2.99 8.33 -3.98 8.66 -5 9 C-4.67 7.68 -4.34 6.36 -4 5 C-3.34 5 -2.68 5 -2 5 C-1.34 3.35 -0.68 1.7 0 0 Z " fill="#246C1F" transform="translate(135,40)"/>
<path d="M0 0 C5.33489907 0.45990509 9.37523328 1.06722111 14 4 C14.33 4.99 14.66 5.98 15 7 C9.80355921 5.40109514 4.93387858 3.25861997 0 1 C0 0.67 0 0.34 0 0 Z " fill="#246C19" transform="translate(168,140)"/>
<path d="M0 0 C0.66 0 1.32 0 2 0 C6 6.75 6 6.75 6 9 C5.34 9 4.68 9 4 9 C3.67 9.66 3.34 10.32 3 11 C2.49384702 9.73160474 1.99530901 8.46016898 1.5 7.1875 C1.2215625 6.47980469 0.943125 5.77210937 0.65625 5.04296875 C0 3 0 3 0 0 Z " fill="#CCDA35" transform="translate(80,107)"/>
<path d="M0 0 C2.93200474 2.85276137 5.64315404 5.65079784 8 9 C7.67 9.66 7.34 10.32 7 11 C1.125 7.25 1.125 7.25 0 5 C-0.0396713 3.33380554 -0.04384447 1.66608987 0 0 Z " fill="#D8D722" transform="translate(90,47)"/>
<path d="M0 0 C3.66172475 0.62678171 6.8818995 1.64451846 10.3125 3.0625 C11.19550781 3.42472656 12.07851562 3.78695312 12.98828125 4.16015625 C13.65214844 4.43730469 14.31601563 4.71445313 15 5 C11.70303895 6.09898702 10.59505097 5.87124444 7.3125 5.0625 C6.50425781 4.86785156 5.69601563 4.67320312 4.86328125 4.47265625 C4.24839844 4.31667969 3.63351563 4.16070312 3 4 C3 3.34 3 2.68 3 2 C2.01 2 1.02 2 0 2 C0 1.34 0 0.68 0 0 Z " fill="#2C6E19" transform="translate(105,201)"/>
<path d="M0 0 C-0.66 1.98 -1.32 3.96 -2 6 C-2.66 6 -3.32 6 -4 6 C-4.33 4.68 -4.66 3.36 -5 2 C-5.66 2 -6.32 2 -7 2 C-7 1.34 -7 0.68 -7 0 C-3.86650268 -1.04449911 -3.01031744 -0.93423645 0 0 Z " fill="#0F692C" transform="translate(95,160)"/>
<path d="M0 0 C7.42857143 1 7.42857143 1 11 2 C11.33 3.65 11.66 5.3 12 7 C8.04 5.02 4.08 3.04 0 1 C0 0.67 0 0.34 0 0 Z " fill="#D9DA26" transform="translate(171,122)"/>
<path d="M0 0 C1.1484375 1.671875 1.1484375 1.671875 2 4 C1.1015625 6.578125 1.1015625 6.578125 -0.375 9.25 C-1.09816406 10.58804688 -1.09816406 10.58804688 -1.8359375 11.953125 C-2.22007812 12.62859375 -2.60421875 13.3040625 -3 14 C-5 11 -5 11 -5 9 C-4.01 9 -3.02 9 -2 9 C-1.7834375 7.88625 -1.7834375 7.88625 -1.5625 6.75 C-1.09812508 4.47972261 -0.58136431 2.24240521 0 0 Z " fill="#1C681E" transform="translate(189,59)"/>
<path d="M0 0 C1.32 0.33 2.64 0.66 4 1 C3.67 1.33 3.34 1.66 3 2 C4.175625 3.1446875 4.175625 3.1446875 5.375 4.3125 C8 7 8 7 10 10 C6.55204777 8.46757679 3.7800962 6.55468299 1 4 C0.1875 1.75 0.1875 1.75 0 0 Z " fill="#D9D724" transform="translate(86,26)"/>
<path d="M0 0 C2.87355849 0.08451643 4.54298589 0.54522068 6.59765625 2.58984375 C7.6421364 3.8447597 8.66649466 5.11675301 9.66796875 6.40625 C10.92936016 8.13113625 10.92936016 8.13113625 13 9 C12.67 9.66 12.34 10.32 12 11 C10.18401175 9.54601271 8.37230481 8.08667675 6.5625 6.625 C5.04849609 5.40683594 5.04849609 5.40683594 3.50390625 4.1640625 C1 2 1 2 0 0 Z " fill="#CFD72F" transform="translate(73,76)"/>
<path d="M0 0 C2.31 0 4.62 0 7 0 C4.14723863 2.93200474 1.34920216 5.64315404 -2 8 C-2 6.68 -2 5.36 -2 4 C-1.01 4 -0.02 4 1 4 C0.67 2.68 0.34 1.36 0 0 Z " fill="#236C1F" transform="translate(138,68)"/>
<path d="M0 0 C-1.65 0.33 -3.3 0.66 -5 1 C-5 1.66 -5 2.32 -5 3 C-6.98 3 -8.96 3 -11 3 C-11.33 3.66 -11.66 4.32 -12 5 C-13.32 4.34 -14.64 3.68 -16 3 C-13.71068726 2.30364247 -11.4191243 1.61765623 -9.125 0.9375 C-8.47402344 0.73833984 -7.82304687 0.53917969 -7.15234375 0.33398438 C-2.2265625 -1.11328125 -2.2265625 -1.11328125 0 0 Z " fill="#2C6D17" transform="translate(149,206)"/>
<path d="M0 0 C4.56454251 0.54339792 7.9728176 1.79463821 12 4 C12 4.33 12 4.66 12 5 C10.02 5.33 8.04 5.66 6 6 C5.67 5.01 5.34 4.02 5 3 C4.34 3 3.68 3 3 3 C3 2.34 3 1.68 3 1 C2.01 0.67 1.02 0.34 0 0 Z " fill="#1B671F" transform="translate(167,122)"/>
<path d="M0 0 C0.94875 0.04125 1.8975 0.0825 2.875 0.125 C3.205 1.445 3.535 2.765 3.875 4.125 C2.555 3.465 1.235 2.805 -0.125 2.125 C-0.455 3.445 -0.785 4.765 -1.125 6.125 C-1.455 5.135 -1.785 4.145 -2.125 3.125 C-3.115 2.795 -4.105 2.465 -5.125 2.125 C-3.125 0.125 -3.125 0.125 0 0 Z " fill="#E4D918" transform="translate(61.125,65.875)"/>
<path d="M0 0 C1.32 0.33 2.64 0.66 4 1 C2.85760183 2.33627775 1.71098945 3.66895388 0.5625 5 C-0.07558594 5.7425 -0.71367187 6.485 -1.37109375 7.25 C-2.17740234 8.11625 -2.17740234 8.11625 -3 9 C-3.33 9 -3.66 9 -4 9 C-4 7.02 -4 5.04 -4 3 C-2.68 3 -1.36 3 0 3 C0 2.01 0 1.02 0 0 Z " fill="#1C6821" transform="translate(145,25)"/>
<path d="M0 0 C1.670625 0.495 1.670625 0.495 3.375 1 C6.69459717 2.088643 6.69459717 2.088643 9 2 C9.33 3.65 9.66 5.3 10 7 C5.56541027 5.6062718 3.12621626 3.39417765 0 0 Z " fill="#266D1D" transform="translate(129,152)"/>
<path d="M0 0 C4.455 0.99 4.455 0.99 9 2 C4.62615587 4.91589609 1.29457529 6.30254716 -4 6 C-0.25 4 -0.25 4 2 4 C1.34 2.68 0.68 1.36 0 0 Z " fill="#1F6D28" transform="translate(171,50)"/>
<path d="M0 0 C0.66 0.33 1.32 0.66 2 1 C0.8125 3.4375 0.8125 3.4375 -1 6 C-3.6875 6.8125 -3.6875 6.8125 -6 7 C-4.02 4.69 -2.04 2.38 0 0 Z " fill="#DEDC1D" transform="translate(106,148)"/>
<path d="M0 0 C-0.33 2.64 -0.66 5.28 -1 8 C-2.37562854 6.71034824 -3.70766393 5.37310707 -5 4 C-5 3.34 -5 2.68 -5 2 C-1.125 0 -1.125 0 0 0 Z " fill="#EFE011" transform="translate(100,97)"/>
<path d="M0 0 C2.475 0.99 2.475 0.99 5 2 C5 2.99 5 3.98 5 5 C5.66 5 6.32 5 7 5 C7.33 6.65 7.66 8.3 8 10 C4.71211176 6.88983545 2.16264012 3.98381075 0 0 Z " fill="#D4D525" transform="translate(98,38)"/>
<path d="M0 0 C1.32 0.33 2.64 0.66 4 1 C-0.455 3.97 -0.455 3.97 -5 7 C-5 6.01 -5 5.02 -5 4 C-4.34 4 -3.68 4 -3 4 C-3 3.34 -3 2.68 -3 2 C-2.01 2 -1.02 2 0 2 C0 1.34 0 0.68 0 0 Z " fill="#D5D624" transform="translate(194,177)"/>
<path d="M0 0 C0.66 0 1.32 0 2 0 C0.33248852 3.94139078 -2.22710649 6.7892812 -5 10 C-5.33 8.68 -5.66 7.36 -6 6 C-5.01 6 -4.02 6 -3 6 C-2.67 4.68 -2.34 3.36 -2 2 C-1.34 2 -0.68 2 0 2 C0 1.34 0 0.68 0 0 Z " fill="#DCDB2C" transform="translate(211,161)"/>
<path d="M0 0 C0.66 0 1.32 0 2 0 C0.14285714 8.71428571 0.14285714 8.71428571 -3 11 C-3 9.02 -3 7.04 -3 5 C-2.01 5 -1.02 5 0 5 C0 3.35 0 1.7 0 0 Z " fill="#E0DE20" transform="translate(217,149)"/>
<path d="M0 0 C0.66 0 1.32 0 2 0 C1.67 2.31 1.34 4.62 1 7 C0.01 7 -0.98 7 -2 7 C-2.125 4.625 -2.125 4.625 -2 2 C-1.34 1.34 -0.68 0.68 0 0 Z " fill="#096A3C" transform="translate(79,132)"/>
<path d="M0 0 C0.66 0 1.32 0 2 0 C2.33 0.66 2.66 1.32 3 2 C5.01669827 3.13350534 5.01669827 3.13350534 7 4 C7 5.98 7 7.96 7 10 C4.3513141 6.80331012 2.06007659 3.60513403 0 0 Z " fill="#E3DE26" transform="translate(88,89)"/>
<path d="M0 0 C2.97 0.33 5.94 0.66 9 1 C7 3 7 3 3.375 3.125 C2.26125 3.08375 1.1475 3.0425 0 3 C0 2.01 0 1.02 0 0 Z " fill="#28742A" transform="translate(176,40)"/>
<path d="M0 0 C1 2 1 2 0.5 4 C-1.75069493 7.00092657 -4.44640878 7.21031306 -8 8 C-5.33333333 5.33333333 -2.66666667 2.66666667 0 0 Z " fill="#256B1D" transform="translate(201,174)"/>
<path d="M0 0 C0.99 0.33 1.98 0.66 3 1 C3.33 3.31 3.66 5.62 4 8 C3.01 8.33 2.02 8.66 1 9 C0.67 6.03 0.34 3.06 0 0 Z " fill="#E0DF2D" transform="translate(84,116)"/>
<path d="M0 0 C1 2 1 2 0.4375 4.0625 C-1 6 -1 6 -4.125 6.75 C-5.548125 6.87375 -5.548125 6.87375 -7 7 C-4.78071806 4.09197539 -3.07030857 2.04687238 0 0 Z " fill="#1E671B" transform="translate(191,89)"/>
<path d="M0 0 C0.66 0.33 1.32 0.66 2 1 C-0.31 3.64 -2.62 6.28 -5 9 C-5.66 8.67 -6.32 8.34 -7 8 C-7 7.34 -7 6.68 -7 6 C-6.01 5.67 -5.02 5.34 -4 5 C-3.67 4.01 -3.34 3.02 -3 2 C-2.01 1.34 -1.02 0.68 0 0 Z " fill="#256C15" transform="translate(182,75)"/>
<path d="M0 0 C0.99 0.66 1.98 1.32 3 2 C-0.72965139 4.03435531 -2.66905042 5 -7 5 C-7 4.34 -7 3.68 -7 3 C-3.6875 1.375 -3.6875 1.375 0 0 Z " fill="#C4D743" transform="translate(159,60)"/>
<path d="M0 0 C0.33 0.99 0.66 1.98 1 3 C3.01508358 3.73323796 3.01508358 3.73323796 5 4 C0.25 7 0.25 7 -2 7 C-1.125 2.25 -1.125 2.25 0 0 Z " fill="#156B25" transform="translate(147,60)"/>
<path d="M0 0 C4.29 0 8.58 0 13 0 C13 0.33 13 0.66 13 1 C10.36 1 7.72 1 5 1 C5.33 1.99 5.66 2.98 6 4 C1.125 2.25 1.125 2.25 0 0 Z " fill="#E1E239" transform="translate(81,25)"/>
<path d="M0 0 C1.65 0.33 3.3 0.66 5 1 C0.25 5.875 0.25 5.875 -2 7 C-2 6.01 -2 5.02 -2 4 C-1.34 4 -0.68 4 0 4 C0 2.68 0 1.36 0 0 Z " fill="#1E6A25" transform="translate(103,146)"/>
<path d="M0 0 C3.96 0.99 3.96 0.99 8 2 C7.67 2.66 7.34 3.32 7 4 C4.03 3.67 1.06 3.34 -2 3 C-1.34 2.67 -0.68 2.34 0 2 C0 1.34 0 0.68 0 0 Z " fill="#D2DA37" transform="translate(155,136)"/>
<path d="M0 0 C4.67692308 1.47692308 4.67692308 1.47692308 6.3125 4.125 C6.539375 4.74375 6.76625 5.3625 7 6 C7.66 6 8.32 6 9 6 C8.67 6.99 8.34 7.98 8 9 C7.7525 8.38125 7.505 7.7625 7.25 7.125 C5.76718549 4.60421533 4.59136042 4.2147002 2 3 C1.34 2.01 0.68 1.02 0 0 Z " fill="#D2D32C" transform="translate(183,129)"/>
<path d="M0 0 C2.96404505 2.80804268 5.44499019 5.18315774 7 9 C5.68 8.67 4.36 8.34 3 8 C2.67 6.68 2.34 5.36 2 4 C1.34 4 0.68 4 0 4 C0 2.68 0 1.36 0 0 Z " fill="#DDDA29" transform="translate(59,123)"/>
<path d="M0 0 C0.66 0.33 1.32 0.66 2 1 C1.67 1.66 1.34 2.32 1 3 C1.33 3.99 1.66 4.98 2 6 C-0.31 5.34 -2.62 4.68 -5 4 C-4.01 3.67 -3.02 3.34 -2 3 C-2 2.34 -2 1.68 -2 1 C-1.34 0.67 -0.68 0.34 0 0 Z " fill="#F8E30E" transform="translate(175,117)"/>
<path d="M0 0 C0 4.38968456 -2.12805101 5.76905739 -5 9 C-5.99 8.67 -6.98 8.34 -8 8 C-5.36 5.36 -2.72 2.72 0 0 Z " fill="#1C691A" transform="translate(200,80)"/>
<path d="M0 0 C0.99 0.33 1.98 0.66 3 1 C1.35 4.3 -0.3 7.6 -2 11 C-2.33 11 -2.66 11 -3 11 C-3 9.35 -3 7.7 -3 6 C-2.34 6 -1.68 6 -1 6 C-0.67 4.02 -0.34 2.04 0 0 Z " fill="#266C18" transform="translate(132,77)"/>
<path d="M0 0 C2.97 1.98 2.97 1.98 6 4 C5.01 4.495 5.01 4.495 4 5 C4 5.66 4 6.32 4 7 C3.01 6.67 2.02 6.34 1 6 C0.67 4.02 0.34 2.04 0 0 Z " fill="#176A25" transform="translate(74,78)"/>
<path d="M0 0 C0.66 0 1.32 0 2 0 C2 1.65 2 3.3 2 5 C1.01 5.33 0.02 5.66 -1 6 C-2.66710346 7.49985609 -2.66710346 7.49985609 -4 9 C-2.80100302 5.9168649 -1.52299523 2.93720508 0 0 Z " fill="#D8DB2C" transform="translate(220,70)"/>
<path d="M0 0 C1.32 0.66 2.64 1.32 4 2 C2.35830472 4.02054804 0.69088222 6.02043058 -1 8 C-1.33 8 -1.66 8 -2 8 C-2 6.35 -2 4.7 -2 3 C-1.34 2.67 -0.68 2.34 0 2 C0 1.34 0 0.68 0 0 Z " fill="#D8D720" transform="translate(201,73)"/>
<path d="M0 0 C0.66 0.33 1.32 0.66 2 1 C2 1.99 2 2.98 2 4 C2.99 4 3.98 4 5 4 C5 4.66 5 5.32 5 6 C2.0625 5.1875 2.0625 5.1875 -1 4 C-1.33 3.01 -1.66 2.02 -2 1 C-1.34 0.67 -0.68 0.34 0 0 Z " fill="#CED424" transform="translate(99,194)"/>
<path d="M0 0 C0.99 0.33 1.98 0.66 3 1 C0.69 2.65 -1.62 4.3 -4 6 C-4.33 5.34 -4.66 4.68 -5 4 C-4.34 3.01 -3.68 2.02 -3 1 C-2.01 1.33 -1.02 1.66 0 2 C0 1.34 0 0.68 0 0 Z " fill="#D3D527" transform="translate(183,93)"/>
<path d="M0 0 C0 0.99 0 1.98 0 3 C-4.455 4.485 -4.455 4.485 -9 6 C-3.2 0 -3.2 0 0 0 Z " fill="#2A6B19" transform="translate(193,182)"/>
<path d="M0 0 C-3.96 1.98 -3.96 1.98 -8 4 C-7.67 2.68 -7.34 1.36 -7 0 C-2.25 -1.125 -2.25 -1.125 0 0 Z " fill="#21671F" transform="translate(179,114)"/>
<path d="M0 0 C1.32 1.32 2.64 2.64 4 4 C3.34 5.32 2.68 6.64 2 8 C0.93224776 6.03533587 -0.06553465 4.03144641 -1 2 C-0.67 1.34 -0.34 0.68 0 0 Z " fill="#BACD39" transform="translate(77,101)"/>
<path d="M0 0 C0.66 0.33 1.32 0.66 2 1 C-0.83430453 4.2542015 -2.68607774 5.5206753 -7 6 C-4.74259377 3.66475218 -2.7194239 1.81294927 0 0 Z " fill="#216913" transform="translate(182,96)"/>
<path d="M0 0 C0.66 0.33 1.32 0.66 2 1 C1.34 2.32 0.68 3.64 0 5 C-2.31 5 -4.62 5 -7 5 C-4.702779 3.25728062 -2.40133271 1.60088848 0 0 Z " fill="#D2D622" transform="translate(168,90)"/>
<path d="M0 0 C0 3.99904969 -1.72586967 5.80200422 -4 9 C-4.8125 7.3125 -4.8125 7.3125 -5 5 C-2.5625 2.25 -2.5625 2.25 0 0 Z " fill="#CFD72F" transform="translate(210,64)"/>
</svg>
